<svg width="62" height="62" viewBox="0 0 62 62" version="1.1" xmlns="http://www.w3.org/2000/svg" xmlns:xlink="http://www.w3.org/1999/xlink">
<title>Group</title>
<desc>Created using Figma</desc>
<g id="Canvas" transform="translate(568 -481)">
<g id="Group">
<g id="Vector">
<use xlink:href="#path0_fill" transform="translate(-543 481)" fill="#5386E4"/>
</g>
<g id="Vector">
<use xlink:href="#path1_fill" transform="translate(-551 498)" fill="#5386E4"/>
</g>
<g id="Vector">
<use xlink:href="#path2_fill" transform="translate(-546 505)" fill="#5386E4"/>
</g>
<g id="Vector">
<use xlink:href="#path3_fill" transform="translate(-538 486)" fill="#5386E4"/>
</g>
<g id="Vector">
<use xlink:href="#path4_fill" transform="translate(-560.678 488.322)" fill="#5386E4"/>
</g>
<g id="Vector">
<use xlink:href="#path5_fill" transform="matrix(0.7071 -0.7071 0.7071 0.7071 -556.093 494.322)" fill="#5386E4"/>
</g>
<g id="Vector">
<use xlink:href="#path6_fill" transform="translate(-568 506)" fill="#5386E4"/>
</g>
<g id="Vector">
<use xlink:href="#path3_fill" transform="translate(-563 511)" fill="#5386E4"/>
</g>
<g id="Vector">
<use xlink:href="#path7_fill" transform="translate(-560.678 522.606)" fill="#5386E4"/>
</g>
<g id="Vector">
<use xlink:href="#path8_fill" transform="matrix(0.7071 -0.7071 0.7071 0.7071 -556.092 529.678)" fill="#5386E4"/>
</g>
<g id="Vector">
<use xlink:href="#path9_fill" transform="translate(-543 528)" fill="#5386E4"/>
</g>
<g id="Vector">
<use xlink:href="#path3_fill" transform="translate(-538 536)" fill="#5386E4"/>
</g>
<g id="Vector">
<use xlink:href="#path10_fill" transform="translate(-526.393 522.607)" fill="#5386E4"/>
</g>
<g id="Vector">
<use xlink:href="#path11_fill" transform="matrix(0.7071 -0.7071 0.7071 0.7071 -520.737 529.678)" fill="#5386E4"/>
</g>
<g id="Vector">
<use xlink:href="#path12_fill" transform="translate(-521 506)" fill="#5386E4"/>
</g>
<g id="Vector">
<use xlink:href="#path3_fill" transform="translate(-513 511)" fill="#5386E4"/>
</g>
<g id="Vector">
<use xlink:href="#path13_fill" transform="translate(-526.393 488.323)" fill="#5386E4"/>
</g>
<g id="Vector">
<use xlink:href="#path14_fill" transform="matrix(0.7071 -0.7071 0.7071 0.7071 -520.737 494.322)" fill="#5386E4"/>
</g>
</g>
</g>
<defs>
<path id="path0_fill" d="M 5 11.91L 5 15L 7 15L 7 11.91C 9.833 11.432 12 8.968 12 6C 12 2.691 9.309 0 6 0C 2.691 0 0 2.691 0 6C 0 8.967 2.167 11.431 5 11.91ZM 6 2C 8.206 2 10 3.794 10 6C 10 8.206 8.206 10 6 10C 3.794 10 2 8.206 2 6C 2 3.794 3.794 2 6 2Z"/>
<path id="path1_fill" d="M 14 0C 6.28 0 0 6.28 0 14C 0 21.72 6.28 28 14 28C 21.72 28 28 21.72 28 14C 28 6.28 21.72 0 14 0ZM 14 26C 7.383 26 2 20.617 2 14C 2 7.383 7.383 2 14 2C 20.617 2 26 7.383 26 14C 26 20.617 20.617 26 14 26Z"/>
<path id="path2_fill" d="M 16 11L 16 0L 14 0L 14 11L 12 11L 12 4L 10 4L 10 11L 8 11L 8 6L 6 6L 6 11L 4 11L 4 2L 2 2L 2 11L 0 11L 0 13L 18 13L 18 11L 16 11Z"/>
<path id="path3_fill" d="M 2 0L 0 0L 0 2L 2 2L 2 0Z"/>
<path id="path4_fill" d="M 6 12C 7.264 12 8.465 11.607 9.473 10.887L 11.657 13.071L 13.071 11.657L 10.887 9.473C 11.607 8.465 12 7.264 12 6C 12 4.397 11.376 2.891 10.243 1.757C 9.11 0.623001 7.603 -4.50134e-07 6 -4.50134e-07C 4.397 -4.50134e-07 2.891 0.624 1.757 1.757C 0.623001 2.89 -4.50134e-07 4.397 -4.50134e-07 6C -4.50134e-07 7.603 0.624 9.109 1.757 10.243C 2.89 11.377 4.398 12 6 12ZM 3.172 3.172C 3.952 2.392 4.976 2.003 6.001 2.003C 7.026 2.003 8.05 2.393 8.83 3.172C 10.39 4.732 10.39 7.27 8.83 8.829C 7.27 10.388 4.732 10.389 3.173 8.829C 1.614 7.269 1.612 4.731 3.172 3.172Z"/>
<path id="path5_fill" d="M 2 0L 0 0L 0 2L 2 2L 2 0Z"/>
<path id="path6_fill" d="M 11.91 7L 15 7L 15 5L 11.91 5C 11.432 2.167 8.968 0 6 0C 2.691 0 0 2.691 0 6C 0 9.309 2.691 12 6 12C 8.967 12 11.431 9.833 11.91 7ZM 6 10C 3.794 10 2 8.206 2 6C 2 3.794 3.794 2 6 2C 8.206 2 10 3.794 10 6C 10 8.206 8.206 10 6 10Z"/>
<path id="path7_fill" d="M 11.657 -1.00708e-06L 9.473 2.184C 8.465 1.464 7.264 1.071 6 1.071C 4.397 1.071 2.891 1.695 1.757 2.828C 0.623001 3.961 -4.50134e-07 5.468 -4.50134e-07 7.071C -4.50134e-07 8.674 0.624 10.18 1.757 11.314C 2.89 12.448 4.397 13.071 6 13.071C 7.603 13.071 9.109 12.447 10.243 11.314C 11.377 10.181 12 8.674 12 7.071C 12 5.807 11.607 4.606 10.887 3.598L 13.071 1.414L 11.657 -1.00708e-06ZM 8.829 9.9C 7.269 11.46 4.731 11.46 3.172 9.9C 1.613 8.34 1.612 5.802 3.172 4.243C 3.952 3.463 4.976 3.074 6.001 3.074C 7.026 3.074 8.05 3.464 8.83 4.243C 10.388 5.803 10.388 8.341 8.829 9.9Z"/>
<path id="path8_fill" d="M 2 0L 0 0L 0 2L 2 2L 2 0Z"/>
<path id="path9_fill" d="M 7 3.09L 7 0L 5 0L 5 3.09C 2.167 3.568 0 6.032 0 9C 0 12.309 2.691 15 6 15C 9.309 15 12 12.309 12 9C 12 6.033 9.833 3.569 7 3.09ZM 6 13C 3.794 13 2 11.206 2 9C 2 6.794 3.794 5 6 5C 8.206 5 10 6.794 10 9C 10 11.206 8.206 13 6 13Z"/>
<path id="path10_fill" d="M 7.071 1.071C 5.807 1.071 4.606 1.464 3.598 2.184L 1.414 -1.5564e-06L -1.5564e-06 1.414L 2.184 3.598C 1.464 4.606 1.071 5.807 1.071 7.071C 1.071 8.674 1.695 10.18 2.828 11.314C 3.961 12.448 5.468 13.071 7.071 13.071C 8.674 13.071 10.18 12.447 11.314 11.314C 12.448 10.181 13.071 8.674 13.071 7.071C 13.071 5.468 12.447 3.962 11.314 2.828C 10.181 1.694 8.673 1.071 7.071 1.071ZM 9.899 9.899C 8.339 11.459 5.801 11.459 4.242 9.899C 2.683 8.339 2.682 5.801 4.242 4.242C 5.022 3.462 6.046 3.073 7.071 3.073C 8.096 3.073 9.12 3.463 9.9 4.242C 11.459 5.802 11.459 8.34 9.899 9.899Z"/>
<path id="path11_fill" d="M 2 0L 0 0L 0 2L 2 2L 2 0Z"/>
<path id="path12_fill" d="M 9 0C 6.033 0 3.569 2.167 3.09 5L 0 5L 0 7L 3.09 7C 3.568 9.833 6.032 12 9 12C 12.309 12 15 9.309 15 6C 15 2.691 12.309 0 9 0ZM 9 10C 6.794 10 5 8.206 5 6C 5 3.794 6.794 2 9 2C 11.206 2 13 3.794 13 6C 13 8.206 11.206 10 9 10Z"/>
<path id="path13_fill" d="M 1.414 13.071L 3.598 10.887C 4.606 11.607 5.807 12 7.071 12C 8.674 12 10.18 11.376 11.314 10.243C 12.448 9.11 13.071 7.603 13.071 6C 13.071 4.397 12.447 2.891 11.314 1.757C 10.181 0.623 8.674 -4.57764e-08 7.071 -4.57764e-08C 5.468 -4.57764e-08 3.962 0.624 2.828 1.757C 1.694 2.89 1.071 4.397 1.071 6C 1.071 7.264 1.464 8.465 2.184 9.473L -1.5564e-06 11.657L 1.414 13.071ZM 4.242 3.171C 5.022 2.391 6.046 2.002 7.071 2.002C 8.096 2.002 9.12 2.392 9.9 3.171C 11.46 4.731 11.46 7.269 9.9 8.828C 8.34 10.387 5.802 10.388 4.243 8.828C 2.684 7.268 2.683 4.73 4.242 3.171Z"/>
<path id="path14_fill" d="M 2 0L 0 0L 0 2L 2 2L 2 0Z"/>
</defs>
</svg>
