<svg width="62" height="56" viewBox="0 0 62 56" version="1.1" xmlns="http://www.w3.org/2000/svg" xmlns:xlink="http://www.w3.org/1999/xlink">
<title>Vector</title>
<desc>Created using Figma</desc>
<g id="Canvas" transform="translate(-91 -483)">
<g id="Vector">
<use xlink:href="#path0_fill" transform="translate(91 483)" fill="#5386E4"/>
</g>
</g>
<defs>
<path id="path0_fill" d="M 44.0364 25.566C 44.6622 26.2856 45.4314 26.8671 46.2948 27.2735C 47.1583 27.6798 48.0971 27.9022 49.0514 27.9262C 50.2848 27.9168 51.4898 27.5553 52.5241 26.8844C 55.6827 24.893 60.7716 14.6776 61.335 13.516L 62 12.1699L 60.5038 12.1699C 59.2108 12.1699 47.7861 12.3635 44.6182 14.355C 43.8202 14.8379 43.1401 15.4923 42.6273 16.2706C 42.1144 17.0489 41.7818 17.9314 41.6535 18.8541C 41.4558 20.6891 41.8996 22.5359 42.9096 24.0817L 39.8156 26.3497L 36.8047 23.2611C 40.4529 19.0477 40.6376 13.7372 37.091 9.89266C 33.2489 5.68851 15.3037 0.617715 14.5372 0.405663L 13.0964 4.22041e-07L 13.3827 1.46592C 13.5305 2.24037 17.1324 20.4768 21.0022 24.6809C 21.8639 25.6495 22.9203 26.426 24.1027 26.9598C 25.285 27.4935 26.5668 27.7726 27.8644 27.7787C 30.7203 27.6888 33.4414 26.5458 35.5025 24.5703L 38.7904 27.9355L 38.7904 34.2417C 36.2452 34.3623 33.763 35.0725 31.5403 36.3161C 30.4242 35.3301 28.9854 34.7858 27.495 34.7856L 16.6245 34.7856L 16.6245 32.9417L 7.38865 32.9417L 7.38865 33.8637L 0.923581 33.8637C 0.678632 33.8637 0.443716 33.9608 0.270511 34.1337C 0.0973058 34.3066 0 34.5411 0 34.7856C 0 35.0302 0.0973058 35.2647 0.270511 35.4376C 0.443716 35.6105 0.678632 35.7076 0.923581 35.7076L 7.38865 35.7076L 7.38865 49.537L 0.923581 49.537C 0.678632 49.537 0.443716 49.6342 0.270511 49.8071C 0.0973058 49.98 0 50.2145 0 50.459C 0 50.7035 0.0973058 50.938 0.270511 51.1109C 0.443716 51.2838 0.678632 51.381 0.923581 51.381L 7.38865 51.381L 7.38865 52.3029L 16.6245 52.3029L 16.6245 50.459L 17.271 50.459C 17.3629 50.4609 17.4537 50.4796 17.5388 50.5143L 34.5235 55.8433C 34.7983 55.9455 35.0891 55.9986 35.3824 56L 44.9969 56C 45.2865 55.9995 45.5738 55.9496 45.8466 55.8525L 56.9942 51.2427C 57.3969 51.1079 57.7585 50.8726 58.0446 50.5592C 58.3308 50.2457 58.5319 49.8646 58.6291 49.4517C 58.7262 49.0389 58.7161 48.6082 58.5997 48.2004C 58.4833 47.7926 58.2645 47.4212 57.964 47.1215C 57.9113 47.0685 57.8524 47.022 57.7885 46.9832C 56.7592 46.3757 55.6141 45.9895 54.4266 45.8492C 53.8633 39.6444 47.9616 34.6842 40.6376 34.2878L 40.6376 28.0277L 44.0364 25.566ZM 14.7773 35.7076L 14.7773 50.459L 9.23581 50.459L 9.23581 34.7856L 14.7773 34.7856L 14.7773 35.7076ZM 43.4822 19.1123C 43.5723 18.4551 43.8103 17.8267 44.1781 17.2743C 44.546 16.7219 45.0343 16.2597 45.6064 15.9223C 47.6198 14.6592 54.9346 14.1798 58.9984 14.0784C 57.1512 17.6832 53.5585 24.0724 51.5451 25.3355C 50.6092 25.9399 49.486 26.186 48.3827 26.0284C 47.2793 25.8708 46.2703 25.3202 45.5418 24.4781L 54.1126 18.1903C 54.2188 18.1224 54.3099 18.0334 54.3803 17.9289C 54.4507 17.8245 54.499 17.7067 54.5221 17.583C 54.5451 17.4592 54.5426 17.332 54.5145 17.2092C 54.4865 17.0865 54.4336 16.9707 54.359 16.8692C 54.2844 16.7676 54.1898 16.6824 54.081 16.6188C 53.9722 16.5551 53.8515 16.5144 53.7263 16.4991C 53.6011 16.4838 53.4741 16.4942 53.3531 16.5298C 53.2321 16.5654 53.1197 16.6254 53.0228 16.706L 44.415 23.003C 43.6757 21.8472 43.3472 20.4769 43.4822 19.1123ZM 28.1969 25.9164C 27.1005 25.9657 26.0071 25.7675 24.9981 25.3365C 23.9891 24.9055 23.0904 24.2528 22.3691 23.4271C 19.6908 20.5229 16.7538 8.54659 15.4977 2.59993C 21.3347 4.33322 33.0457 8.23312 35.7334 11.1373C 38.5595 14.1982 38.4025 18.4669 35.5117 21.9243L 23.8007 9.89266C 23.7192 9.79517 23.6184 9.71553 23.5047 9.65873C 23.3909 9.60193 23.2667 9.5692 23.1396 9.56258C 23.0126 9.55596 22.8856 9.57561 22.7666 9.62028C 22.6475 9.66495 22.539 9.73369 22.4478 9.82218C 22.3566 9.91068 22.2847 10.017 22.2366 10.1346C 22.1884 10.2521 22.1652 10.3783 22.1682 10.5052C 22.1712 10.6321 22.2005 10.7571 22.2541 10.8722C 22.3078 10.9873 22.3847 11.0901 22.48 11.1742L 34.2187 23.2519C 32.5712 24.7945 30.4483 25.7338 28.1969 25.9164ZM 56.8279 48.9654C 56.7973 49.083 56.7358 49.1903 56.6498 49.2762C 56.5637 49.3621 56.4562 49.4235 56.3385 49.4541L 45.2001 54.1469C 45.1328 54.1575 45.0642 54.1575 44.9969 54.1469L 35.3732 54.1469C 35.2812 54.145 35.1904 54.1263 35.1053 54.0915L 18.1299 48.7718C 17.855 48.6695 17.5643 48.6165 17.271 48.6151L 16.6245 48.6151L 16.6245 36.6296L 27.495 36.6296C 28.5824 36.6273 29.6296 37.0395 30.4228 37.782C 32.2237 39.46 35.3085 42.3918 37.8114 44.6783L 38.0793 44.9272L 43.4083 44.9272C 43.5449 44.925 43.6804 44.9531 43.8048 45.0094C 43.9293 45.0657 44.0397 45.1489 44.128 45.253C 44.2164 45.3571 44.2805 45.4794 44.3157 45.6112C 44.351 45.743 44.3565 45.881 44.3319 46.0151C 44.2767 46.2305 44.1517 46.4215 43.9762 46.5583C 43.8007 46.6951 43.5848 46.7699 43.3621 46.7712L 36.3614 46.7712C 35.8811 46.347 34.5142 45.0563 30.5428 41.3961C 30.4563 41.3038 30.3517 41.2303 30.2355 41.18C 30.1193 41.1298 29.994 41.104 29.8674 41.1041C 29.7408 41.1042 29.6155 41.1304 29.4995 41.1809C 29.3834 41.2314 29.279 41.3052 29.1927 41.3977C 29.1064 41.4901 29.04 41.5994 28.9978 41.7185C 28.9555 41.8377 28.9383 41.9642 28.9471 42.0903C 28.956 42.2164 28.9907 42.3393 29.0491 42.4515C 29.1075 42.5636 29.1884 42.6626 29.2868 42.7422C 35.5856 48.6151 35.5856 48.6151 36.0197 48.6151L 45.2555 48.6151L 52.5056 47.6931C 53.9706 47.4953 55.4601 47.7836 56.7448 48.5137C 56.7923 48.5847 56.8249 48.6646 56.8408 48.7486C 56.8567 48.8326 56.8554 48.9188 56.8372 49.0023L 56.8279 48.9654ZM 52.5702 45.757L 52.2285 45.757L 46.0405 46.596C 46.0792 46.4846 46.1101 46.3706 46.1329 46.2549C 46.1911 45.863 46.1643 45.4632 46.0543 45.0826C 45.9443 44.702 45.7537 44.3493 45.4954 44.0486C 45.237 43.7479 44.917 43.5061 44.5569 43.3396C 44.1969 43.173 43.8052 43.0856 43.4083 43.0833L 38.7904 43.0833L 32.9349 37.6345C 35.0366 36.5776 37.3608 36.0371 39.714 36.058C 46.41 36.058 51.9699 40.3174 52.5795 45.7847L 52.5702 45.757Z"/>
</defs>
</svg>
