<svg width="53" height="51" viewBox="0 0 53 51" version="1.1" xmlns="http://www.w3.org/2000/svg" xmlns:xlink="http://www.w3.org/1999/xlink">
<title>noun_880970_cc</title>
<desc>Created using Figma</desc>
<g id="Canvas" transform="translate(564 -710)">
<g id="noun_880970_cc">
<g id="Vector">
<use xlink:href="#path0_fill" transform="translate(-538.111 710)" fill="#5386E4"/>
</g>
<g id="Vector">
<use xlink:href="#path1_fill" transform="translate(-564 727.184)" fill="#5386E4"/>
</g>
<g id="Vector">
<use xlink:href="#path2_fill" transform="translate(-549.837 727.184)" fill="#5386E4"/>
</g>
<g id="Vector">
<use xlink:href="#path3_fill" transform="translate(-521.443 727.211)" fill="#5386E4"/>
</g>
</g>
</g>
<defs>
<path id="path0_fill" d="M 15.3569 42.0052C 15.3569 41.797 15.2903 41.5961 15.2385 41.3953C 15.2385 41.3432 15.2385 41.2911 15.2385 41.2391C 15.2385 41.187 15.1868 41.0829 15.1646 41.001L 15.098 40.7704C 15.0388 40.5919 14.9723 40.4134 14.9057 40.2423L 14.8539 40.1158C 14.0739 38.2752 12.6163 36.8092 10.7861 36.0247L 10.6678 35.98C 10.4903 35.9057 10.3128 35.8387 10.1353 35.7866L 9.92078 35.7197L 9.44743 35.6007L 9.20337 35.5486L 8.86315 35.4891L 8.86315 4.24739L 13.212 8.6733C 13.3136 8.78292 13.4361 8.87084 13.5721 8.93183C 13.7082 8.99281 13.8551 9.0256 14.0041 9.02825C 14.1531 9.03089 14.301 9.00333 14.4392 8.94721C 14.5773 8.8911 14.7028 8.80757 14.8081 8.70162C 14.9135 8.59567 14.9965 8.46946 15.0523 8.33053C 15.1081 8.19159 15.1355 8.04278 15.1329 7.89296C 15.1303 7.74315 15.0977 7.5954 15.037 7.45853C 14.9764 7.32166 14.889 7.19848 14.78 7.09633L 8.50814 0.788481L 7.72416 3.40508e-07L 6.94018 0.788481L 0.638755 7.09633C 0.442789 7.30785 0.336103 7.5876 0.341174 7.87667C 0.346245 8.16573 0.462676 8.44152 0.665939 8.64595C 0.869201 8.85038 1.14342 8.96748 1.43084 8.97258C 1.71825 8.97768 1.99641 8.87039 2.20671 8.6733L 6.58517 4.2697L 6.58517 35.5114C 5.08041 35.7404 3.67611 36.4103 2.54769 37.4373C 1.41928 38.4643 0.616784 39.803 0.240468 41.2861C -0.135847 42.7692 -0.0693007 44.3309 0.431796 45.7762C 0.932893 47.2215 1.84632 48.4862 3.05797 49.4124C 4.26961 50.3386 5.72575 50.8851 7.24447 50.9838C 8.76318 51.0825 10.2771 50.7289 11.5972 49.9672C 12.9172 49.2055 13.9849 48.0695 14.6667 46.701C 15.3485 45.3326 15.6143 43.7925 15.4308 42.273C 15.3865 42.1838 15.3643 42.0945 15.3569 42.0052ZM 7.73155 48.6999C 6.96847 48.7084 6.21196 48.5573 5.51009 48.256C 4.80821 47.9547 4.17633 47.5098 3.65458 46.9497C 3.13282 46.3896 2.73261 45.7265 2.47937 45.0025C 2.22613 44.2785 2.1254 43.5094 2.18358 42.7441C 2.24175 41.9788 2.45756 41.2341 2.8173 40.5572C 3.17703 39.8803 3.67282 39.2861 4.27317 38.8122C 4.87352 38.3384 5.5653 37.9954 6.30456 37.8049C 7.04382 37.6144 7.81438 37.5807 8.56731 37.7058L 8.72262 37.7058C 8.97333 37.7529 9.22046 37.8175 9.46223 37.8992L 9.62494 37.9587C 9.85042 38.0408 10.0703 38.1377 10.2832 38.2488L 10.4237 38.3306C 10.6105 38.4389 10.7908 38.5581 10.9636 38.6877L 11.1633 38.8364C 11.3375 38.9774 11.503 39.1289 11.6589 39.2902L 11.8511 39.4985C 11.9913 39.6568 12.1221 39.8232 12.2431 39.9968L 12.3763 40.2126C 12.4877 40.39 12.589 40.5738 12.6795 40.763L 12.7683 40.9415C 12.8695 41.1832 12.9535 41.4317 13.0197 41.6854L 13.0715 41.8862C 13.0715 42.0275 13.1307 42.1689 13.1528 42.3102C 13.175 42.4515 13.1528 42.4441 13.1528 42.5111C 13.2462 43.2872 13.1744 44.0745 12.942 44.8206C 12.7097 45.5667 12.3222 46.2545 11.8052 46.8384C 11.2883 47.4224 10.6538 47.889 9.94376 48.2074C 9.23376 48.5257 8.46454 48.6886 7.68718 48.685L 7.73155 48.6999Z"/>
<path id="path1_fill" d="M 10.1455 0.326313C 9.93744 0.117365 9.65547 -8.2997e-07 9.36147 -8.2997e-07C 9.06748 -8.2997e-07 8.7855 0.117365 8.57749 0.326313L 5.24927 3.67364L 1.92106 0.326313C 1.71075 0.129223 1.43259 0.021924 1.14518 0.0270241C 0.85777 0.0321243 0.583546 0.149224 0.380284 0.353653C 0.177022 0.558083 0.0605907 0.833881 0.0555197 1.12294C 0.0504486 1.412 0.157133 1.69176 0.353099 1.90328L 3.68132 5.2506L 0.353099 8.59793C 0.244101 8.70008 0.156676 8.82326 0.0960408 8.96013C 0.0354052 9.09699 0.0028012 9.24474 0.000172964 9.39456C -0.00245527 9.54437 0.0249462 9.69319 0.0807434 9.83212C 0.136541 9.97106 0.21959 10.0973 0.324937 10.2032C 0.430285 10.3092 0.555771 10.3927 0.693912 10.4488C 0.832052 10.5049 0.980016 10.5325 1.12898 10.5298C 1.27794 10.5272 1.42484 10.4944 1.56093 10.4334C 1.69701 10.3724 1.81949 10.2845 1.92106 10.1749L 5.24927 6.82756L 8.57749 10.1749C 8.7878 10.372 9.06596 10.4793 9.35337 10.4742C 9.64078 10.4691 9.915 10.352 10.1183 10.1476C 10.3215 9.94312 10.438 9.66732 10.443 9.37826C 10.4481 9.0892 10.3414 8.80944 10.1455 8.59793L 6.81723 5.2506L 10.1455 1.90328C 10.3532 1.69407 10.4699 1.41047 10.4699 1.11479C 10.4699 0.819111 10.3532 0.535522 10.1455 0.326313Z"/>
<path id="path2_fill" d="M 10.1455 0.326313C 9.93744 0.117365 9.65546 -8.2997e-07 9.36147 -8.2997e-07C 9.06748 -8.2997e-07 8.78551 0.117365 8.57749 0.326313L 5.24928 3.67364L 1.92106 0.326313C 1.71075 0.129223 1.43259 0.021924 1.14518 0.0270241C 0.85777 0.0321243 0.583547 0.149224 0.380284 0.353653C 0.177022 0.558083 0.0605911 0.833881 0.0555201 1.12294C 0.050449 1.412 0.157132 1.69176 0.353098 1.90328L 3.68131 5.2506L 0.353098 8.59793C 0.2441 8.70008 0.156676 8.82326 0.0960405 8.96013C 0.0354049 9.09699 0.00280162 9.24474 0.000173387 9.39456C -0.00245485 9.54437 0.0249459 9.69319 0.0807431 9.83212C 0.13654 9.97106 0.21959 10.0973 0.324938 10.2032C 0.430285 10.3092 0.555772 10.3927 0.693913 10.4488C 0.832053 10.5049 0.980015 10.5325 1.12898 10.5298C 1.27794 10.5272 1.42484 10.4944 1.56093 10.4334C 1.69702 10.3724 1.81949 10.2845 1.92106 10.1749L 5.24928 6.82756L 8.57749 10.1749C 8.7878 10.372 9.06596 10.4793 9.35337 10.4742C 9.64078 10.4691 9.915 10.352 10.1183 10.1476C 10.3215 9.94312 10.438 9.66732 10.443 9.37826C 10.4481 9.0892 10.3414 8.80944 10.1455 8.59793L 6.81723 5.2506L 10.1455 1.90328C 10.3532 1.69407 10.4699 1.41047 10.4699 1.11479C 10.4699 0.819111 10.3532 0.535522 10.1455 0.326313Z"/>
<path id="path3_fill" d="M 6.81723 5.22375L 10.1455 1.87643C 10.3414 1.66491 10.4481 1.38515 10.443 1.09609C 10.438 0.80703 10.3215 0.531232 10.1183 0.326803C 9.915 0.122374 9.64078 0.00527399 9.35337 0.00017383C 9.06596 -0.00492633 8.7878 0.102372 8.57749 0.299463L 5.24927 3.64679L 1.92106 0.299463C 1.71075 0.102372 1.43259 -0.00492633 1.14518 0.00017383C 0.857769 0.00527399 0.583549 0.122374 0.380287 0.326803C 0.177025 0.531232 0.0605907 0.80703 0.0555196 1.09609C 0.0504486 1.38515 0.157135 1.66491 0.3531 1.87643L 3.68132 5.22375L 0.3531 8.57108C 0.244102 8.67323 0.156676 8.79641 0.0960401 8.93328C 0.0354045 9.07014 0.00279835 9.21789 0.000170114 9.36771C -0.00245812 9.51752 0.0249454 9.66634 0.0807426 9.80527C 0.13654 9.94421 0.21959 10.0704 0.324937 10.1764C 0.430285 10.2823 0.555769 10.3658 0.69391 10.422C 0.83205 10.4781 0.980015 10.5056 1.12898 10.503C 1.27794 10.5004 1.42484 10.4676 1.56093 10.4066C 1.69701 10.3456 1.81949 10.2577 1.92106 10.148L 5.24927 6.80071L 8.57749 10.148C 8.7878 10.3451 9.06596 10.4524 9.35337 10.4473C 9.64078 10.4422 9.915 10.3251 10.1183 10.1207C 10.3215 9.91627 10.438 9.64047 10.443 9.35141C 10.4481 9.06235 10.3414 8.78259 10.1455 8.57108L 6.81723 5.22375Z"/>
</defs>
</svg>
