<svg width="54" height="37" viewBox="0 0 54 37" version="1.1" xmlns="http://www.w3.org/2000/svg" xmlns:xlink="http://www.w3.org/1999/xlink">
<title>Vector</title>
<desc>Created using Figma</desc>
<g id="Canvas" transform="translate(-99 -717)">
<g id="Vector">
<use xlink:href="#path0_fill" transform="translate(99 717)" fill="#5386E4"/>
</g>
</g>
<defs>
<path id="path0_fill" d="M 49.5717 2.86173e-07L 13.2872 2.86173e-07C 10.8454 2.86173e-07 8.85814 1.96202 8.85814 4.37271C 6.41638 4.37271 4.42907 6.33474 4.42907 8.74543C 1.98658 8.74543 -2.11822e-07 10.7075 -2.11822e-07 13.1181L -2.11822e-07 32.6273C -2.11822e-07 35.0387 1.98658 37 4.42907 37L 40.7128 37C 43.1553 37 45.1419 35.0387 45.1419 32.6273C 47.5836 32.6273 49.5709 30.6653 49.5709 28.2546C 52.0134 28.2546 54 26.2933 54 23.8819L 54 4.37271C 54.0007 1.9613 52.0134 2.86173e-07 49.5717 2.86173e-07ZM 4.42907 10.7637L 40.7128 10.7637C 40.8933 10.7637 41.0672 10.7875 41.2374 10.825L 22.4339 25.2084L 3.89279 10.8286C 4.06595 10.789 4.24422 10.7637 4.42907 10.7637ZM 2.0443 32.6273L 2.0443 13.1181C 2.0443 12.7669 2.12832 12.4365 2.2686 12.1364L 16.8746 23.4642L 2.29417 33.6545C 2.13855 33.3428 2.0443 32.9966 2.0443 32.6273ZM 40.7135 34.981L 4.42907 34.981C 4.28002 34.981 4.13536 34.9637 3.99434 34.9377L 18.5514 24.7633L 21.7983 27.2815C 21.9839 27.425 22.2067 27.4972 22.4296 27.4972C 22.6502 27.4972 22.8709 27.4265 23.0557 27.2858L 26.4655 24.6768L 41.1468 34.9384C 41.0065 34.9637 40.8618 34.981 40.7135 34.981ZM 43.0983 32.6273C 43.0983 32.9973 43.0033 33.3428 42.8484 33.6552L 28.1555 23.3856L 42.8703 12.1299C 43.0121 12.4314 43.0983 12.7647 43.0983 13.1189L 43.0983 32.6273ZM 47.5274 28.2539C 47.5274 29.5522 46.4577 30.609 45.1426 30.609L 45.1426 13.1181C 45.1426 10.7075 43.1553 8.74543 40.7135 8.74543L 6.47337 8.74543C 6.47337 7.44703 7.54301 6.391 8.85814 6.391L 45.1426 6.391C 46.4577 6.391 47.5274 7.44703 47.5274 8.74543L 47.5274 28.2539ZM 51.9564 23.8819C 51.9564 25.1803 50.8861 26.2363 49.5709 26.2363L 49.5709 8.74543C 49.5709 6.33474 47.5836 4.37271 45.1419 4.37271L 10.9024 4.37271C 10.9024 3.07432 11.9728 2.01829 13.2872 2.01829L 49.5717 2.01829C 50.8868 2.01829 51.9572 3.07432 51.9572 4.37271L 51.9572 23.8819L 51.9564 23.8819Z"/>
</defs>
</svg>
