<svg width="50" height="48" viewBox="0 0 50 48" version="1.1" xmlns="http://www.w3.org/2000/svg" xmlns:xlink="http://www.w3.org/1999/xlink">
<title>noun_438335_cc</title>
<desc>Created using Figma</desc>
<g id="Canvas" transform="translate(229 -935)">
<g id="noun_438335_cc">
<g id="Vector">
<use xlink:href="#path0_fill" transform="translate(-229 935)" fill="#5386E4"/>
</g>
<g id="Vector">
<use xlink:href="#path1_fill" transform="translate(-210.944 946.125)" fill="#5386E4"/>
</g>
<g id="Vector">
<use xlink:href="#path2_fill" transform="translate(-229 974.603)" fill="#5386E4"/>
</g>
</g>
</g>
<defs>
<path id="path0_fill" d="M 48.6111 36.3848L 1.38889 36.3848C 0.555556 36.3848 0 35.8251 0 34.9854L 0 1.39942C 0 0.559767 0.555556 0 1.38889 0L 48.6111 0C 49.4444 0 50 0.559767 50 1.39942L 50 34.9854C 50 35.8251 49.4444 36.3848 48.6111 36.3848ZM 2.77778 33.586L 47.2222 33.586L 47.2222 2.79883L 2.77778 2.79883L 2.77778 33.586Z"/>
<path id="path1_fill" d="M 1.38889 14.0641C 1.11111 14.0641 0.833333 13.9242 0.694444 13.9242C 0.277778 13.6443 0 13.0845 0 12.6647L 0 1.46939C 0 1.04956 0.277778 0.489796 0.694444 0.209913C 1.11111 -0.0699703 1.66667 -0.0699703 2.08333 0.209913L 13.1944 5.80758C 13.6111 6.08746 14.0278 6.50729 14.0278 7.06706C 14.0278 7.62682 13.75 8.04665 13.1944 8.32653L 2.08333 13.9242C 1.80556 14.0641 1.66667 14.0641 1.38889 14.0641ZM 2.77778 3.70846L 2.77778 10.4257L 9.44444 7.06706L 2.77778 3.70846Z"/>
<path id="path2_fill" d="M 48.6111 2.37901L 33.8889 2.37901C 33.1944 0.979592 31.8056 -1.06767e-06 30.1389 -1.06767e-06C 28.4722 -1.06767e-06 27.2222 0.979592 26.5278 2.37901L 0 2.37901L 0 5.17784L 26.1111 5.17784C 26.5278 6.99708 28.1944 8.3965 30.1389 8.3965C 32.0833 8.3965 33.75 6.99708 34.1667 5.17784L 48.6111 5.17784L 48.6111 2.37901ZM 30.2778 5.59767C 29.4444 5.59767 28.8889 5.0379 28.8889 4.19825C 28.8889 3.3586 29.4444 2.79883 30.2778 2.79883C 31.1111 2.79883 31.6667 3.3586 31.6667 4.19825C 31.6667 5.0379 30.9722 5.59767 30.2778 5.59767Z"/>
</defs>
</svg>
