<svg width="53" height="62" viewBox="0 0 53 62" version="1.1" xmlns="http://www.w3.org/2000/svg" xmlns:xlink="http://www.w3.org/1999/xlink">
<title>noun_591024_cc</title>
<desc>Created using Figma</desc>
<g id="Canvas" transform="translate(-82 -4507)">
<g id="noun_591024_cc">
<g id="Group">
<g id="Group">
<g id="Group">
<g id="Group">
<g id="Vector">
<use xlink:href="#path0_fill" transform="translate(93.53 4520.72)" fill="#5386E4"/>
<mask id="mask0_outline_ins">
<use xlink:href="#path0_fill" fill="white" transform="translate(93.53 4520.72)"/>
</mask>
<g mask="url(#mask0_outline_ins)">
<use xlink:href="#path1_stroke_2x" transform="translate(93.53 4520.72)" fill="#5386E4"/>
</g>
</g>
<g id="Vector">
<use xlink:href="#path2_fill" transform="translate(93.53 4534.07)" fill="#5386E4"/>
<mask id="mask1_outline_ins">
<use xlink:href="#path2_fill" fill="white" transform="translate(93.53 4534.07)"/>
</mask>
<g mask="url(#mask1_outline_ins)">
<use xlink:href="#path3_stroke_2x" transform="translate(93.53 4534.07)" fill="#5386E4"/>
</g>
</g>
<g id="Vector">
<use xlink:href="#path4_fill" transform="translate(105.787 4523.78)" fill="#5386E4"/>
<mask id="mask2_outline_ins">
<use xlink:href="#path4_fill" fill="white" transform="translate(105.787 4523.78)"/>
</mask>
<g mask="url(#mask2_outline_ins)">
<use xlink:href="#path5_stroke_2x" transform="translate(105.787 4523.78)" fill="#5386E4"/>
</g>
</g>
<g id="Vector">
<use xlink:href="#path6_fill" transform="translate(105.787 4536.73)" fill="#5386E4"/>
<mask id="mask3_outline_ins">
<use xlink:href="#path6_fill" fill="white" transform="translate(105.787 4536.73)"/>
</mask>
<g mask="url(#mask3_outline_ins)">
<use xlink:href="#path7_stroke_2x" transform="translate(105.787 4536.73)" fill="#5386E4"/>
</g>
</g>
<g id="Vector">
<use xlink:href="#path8_fill" transform="translate(105.787 4549.69)" fill="#5386E4"/>
<mask id="mask4_outline_ins">
<use xlink:href="#path8_fill" fill="white" transform="translate(105.787 4549.69)"/>
</mask>
<g mask="url(#mask4_outline_ins)">
<use xlink:href="#path9_stroke_2x" transform="translate(105.787 4549.69)" fill="#5386E4"/>
</g>
</g>
<g id="Vector">
<use xlink:href="#path10_fill" transform="translate(92.384 4545.61)" fill="#5386E4"/>
<mask id="mask5_outline_ins">
<use xlink:href="#path10_fill" fill="white" transform="translate(92.384 4545.61)"/>
</mask>
<g mask="url(#mask5_outline_ins)">
<use xlink:href="#path11_stroke_2x" transform="translate(92.384 4545.61)" fill="#5386E4"/>
</g>
</g>
</g>
</g>
<g id="Vector">
<use xlink:href="#path12_fill" transform="translate(82 4507)" fill="#5386E4"/>
<mask id="mask6_outline_ins">
<use xlink:href="#path12_fill" fill="white" transform="translate(82 4507)"/>
</mask>
<g mask="url(#mask6_outline_ins)">
<use xlink:href="#path13_stroke_2x" transform="translate(82 4507)" fill="#FCFCFC"/>
</g>
</g>
</g>
</g>
</g>
</g>
<defs>
<path id="path0_fill" d="M 0.429 4.86589C 0.502 4.99089 0.567 5.11389 0.63 5.23389C 0.701 5.37189 0.778 5.51089 0.901 5.73489L 1.348 6.55588C 1.421 6.68088 1.487 6.79689 1.562 6.93989L 1.882 7.52788C 2.01 7.75988 2.249 8.00689 2.484 8.15489C 2.683 8.28588 2.923 8.35488 3.176 8.35488C 3.623 8.35488 4.091 8.14388 4.401 7.79888C 4.549 7.63288 4.695 7.46088 4.84 7.28888L 5.137 6.93989C 5.568 6.42189 6.006 5.90488 6.445 5.38888L 7.971 3.58288C 8.355 3.12488 8.738 2.66588 9.137 2.20488L 9.6 1.64089C 10.027 1.18689 9.893 0.655885 9.697 0.410885C 9.353 -0.0231151 8.816 -0.129115 8.409 0.168885C 8.096 0.402885 7.818 0.665885 7.545 0.924885C 7.096 1.34088 6.641 1.74888 6.183 2.15988L 5.689 2.61388C 5.354 2.92189 5.018 3.23088 4.677 3.53888L 3.29 4.80288L 1.651 3.07889C 1.388 2.86589 1.152 2.82389 0.901999 2.82789C 0.699999 2.85789 0.503001 2.94088 0.334001 3.07388C 0.124001 3.25488 -9.30786e-07 3.52289 -9.30786e-07 3.81089C 0.00699907 3.97289 0.0380009 4.11488 0.0800009 4.20488L 0.429 4.86589Z"/>
<path id="path1_stroke_2x" d="M 0.429 4.86589L -0.455309 5.33279L -0.445319 5.35171L -0.434528 5.37019L 0.429 4.86589ZM 0.63 5.23389L 1.51924 4.77638L 1.5154 4.76905L 0.63 5.23389ZM 0.901 5.73489L 1.77927 5.2567L 1.77755 5.25357L 0.901 5.73489ZM 1.348 6.55588L 0.469738 7.03406L 0.476909 7.04723L 0.484472 7.06018L 1.348 6.55588ZM 1.562 6.93989L 0.67641 7.40436L 0.679977 7.41116L 0.683649 7.4179L 1.562 6.93989ZM 1.882 7.52788L 1.00364 8.00591L 1.00642 8.01096L 1.882 7.52788ZM 2.484 8.15489L 3.03385 7.31962L 3.02543 7.31408L 3.01691 7.30871L 2.484 8.15489ZM 4.401 7.79888L 5.14484 8.46726L 5.14742 8.46436L 4.401 7.79888ZM 4.84 7.28888L 4.07843 6.64078L 4.07543 6.64434L 4.84 7.28888ZM 5.137 6.93989L 5.89861 7.58802L 5.90571 7.57949L 5.137 6.93989ZM 6.445 5.38888L 7.20665 6.03688L 7.20884 6.0343L 6.445 5.38888ZM 7.971 3.58288L 8.73484 4.2283L 8.7373 4.22537L 7.971 3.58288ZM 9.137 2.20488L 9.89312 2.85932L 9.90165 2.84946L 9.90992 2.83939L 9.137 2.20488ZM 9.6 1.64089L 8.87156 0.955771L 8.84847 0.980326L 8.82708 1.00638L 9.6 1.64089ZM 9.697 0.410885L 8.91331 1.03206L 8.91613 1.03558L 9.697 0.410885ZM 8.409 0.168885L 7.81821 -0.638001L 7.81023 -0.632035L 8.409 0.168885ZM 7.545 0.924885L 8.22468 1.65849L 8.23326 1.65035L 7.545 0.924885ZM 6.183 2.15988L 5.51507 1.41557L 5.50633 1.4236L 6.183 2.15988ZM 5.689 2.61388L 5.01233 1.8776L 5.01218 1.87773L 5.689 2.61388ZM 4.677 3.53888L 4.00671 2.79677L 4.00342 2.79976L 4.677 3.53888ZM 3.29 4.80288L 2.56525 5.4919L 3.23988 6.20152L 3.96357 5.542L 3.29 4.80288ZM 1.651 3.07889L 2.37575 2.38987L 2.33092 2.34272L 2.28037 2.30178L 1.651 3.07889ZM 0.901999 2.82789L 0.886002 1.82801L 0.820196 1.82907L 0.755096 1.83873L 0.901999 2.82789ZM 0.334001 3.07388L -0.284437 2.28805L -0.301969 2.30185L -0.318868 2.31641L 0.334001 3.07388ZM -9.30786e-07 3.81089L -1 3.81089L -1 3.83248L -0.999069 3.85405L -9.30786e-07 3.81089ZM 0.0800009 4.20488L -0.826182 4.62777L -0.815786 4.65005L -0.804308 4.67179L 0.0800009 4.20488ZM -0.434528 5.37019C -0.374166 5.47355 -0.318553 5.57842 -0.255398 5.69872L 1.5154 4.76905C 1.45255 4.64935 1.37817 4.50823 1.29253 4.36159L -0.434528 5.37019ZM -0.259213 5.69138C -0.180367 5.84463 -0.0947771 5.99907 0.0244538 6.2162L 1.77755 5.25357C 1.65078 5.0227 1.58237 4.89914 1.51921 4.77639L -0.259213 5.69138ZM 0.0227372 6.21306L 0.469738 7.03406L 2.22626 6.07771L 1.77926 5.25671L 0.0227372 6.21306ZM 0.484472 7.06018C 0.553288 7.17802 0.611062 7.27976 0.67641 7.40436L 2.44759 6.47542C 2.36294 6.31401 2.28871 6.18375 2.21153 6.05158L 0.484472 7.06018ZM 0.683649 7.4179L 1.00365 8.0059L 2.76035 7.04987L 2.44035 6.46187L 0.683649 7.4179ZM 1.00642 8.01096C 1.22244 8.40248 1.58451 8.77019 1.95109 9.00106L 3.01691 7.30871C 2.91349 7.24358 2.79757 7.11728 2.75758 7.04481L 1.00642 8.01096ZM 1.93415 8.99015C 2.30795 9.23622 2.74186 9.35488 3.176 9.35488L 3.176 7.35488C 3.10414 7.35488 3.05805 7.33556 3.03385 7.31962L 1.93415 8.99015ZM 3.176 9.35488C 3.91545 9.35488 4.65105 9.01678 5.14483 8.46725L 3.65717 7.13052C 3.53095 7.27099 3.33055 7.35488 3.176 7.35488L 3.176 9.35488ZM 5.14742 8.46436C 5.30536 8.28721 5.45903 8.10606 5.60456 7.93343L 4.07543 6.64434C 3.93096 6.81571 3.79264 6.97856 3.65458 7.1334L 5.14742 8.46436ZM 5.60156 7.93698L 5.89856 7.58798L 4.37544 6.29179L 4.07844 6.64079L 5.60156 7.93698ZM 5.90571 7.57949C 6.33314 7.06578 6.76831 6.5521 7.20665 6.03688L 5.68335 4.74089C 5.24369 5.25767 4.80286 5.778 4.36829 6.30028L 5.90571 7.57949ZM 7.20884 6.0343L 8.73484 4.2283L 7.20716 2.93747L 5.68117 4.74347L 7.20884 6.0343ZM 8.7373 4.22537C 9.12364 3.76458 9.50053 3.31291 9.89312 2.85932L 8.38088 1.55045C 7.97547 2.01886 7.58636 2.48519 7.2047 2.9404L 8.7373 4.22537ZM 9.90992 2.83939L 10.3729 2.27539L 8.82708 1.00638L 8.36408 1.57038L 9.90992 2.83939ZM 10.3284 2.326C 11.1677 1.43367 10.9153 0.332949 10.4779 -0.21381L 8.91613 1.03558C 8.90345 1.01973 8.89623 1.00789 8.89249 1.00114C 8.88859 0.994131 8.88661 0.989324 8.88559 0.986536C 8.88384 0.981749 8.88251 0.976372 8.88235 0.968516C 8.88214 0.958824 8.8839 0.947445 8.88752 0.937866C 8.8915 0.927335 8.89197 0.934074 8.87156 0.955771L 10.3284 2.326ZM 10.4807 -0.21028C 9.86681 -0.984754 8.73738 -1.31094 7.81824 -0.637961L 8.99976 0.975731C 8.99266 0.980928 8.976 0.990452 8.95122 0.995976C 8.92694 1.00139 8.90507 1.00069 8.88931 0.997686C 8.85661 0.991449 8.87363 0.981979 8.91332 1.03205L 10.4807 -0.21028ZM 7.81023 -0.632035C 7.44315 -0.357603 7.12444 -0.0545566 6.85674 0.199421L 8.23326 1.65035C 8.51155 1.38633 8.74885 1.16337 9.00777 0.969806L 7.81023 -0.632035ZM 6.86536 0.191335C 6.42326 0.600948 5.97438 1.00348 5.51511 1.41562L 6.85089 2.90415C 7.30762 2.49429 7.76874 2.08082 8.22464 1.65843L 6.86536 0.191335ZM 5.50633 1.4236L 5.01233 1.8776L 6.36567 3.35017L 6.85967 2.89617L 5.50633 1.4236ZM 5.01218 1.87773C 4.67656 2.1863 4.34386 2.49226 4.00671 2.79678L 5.34729 4.28099C 5.69214 3.96951 6.03144 3.65747 6.36582 3.35003L 5.01218 1.87773ZM 4.00342 2.79976L 2.61643 4.06376L 3.96357 5.542L 5.35057 4.278L 4.00342 2.79976ZM 4.01475 4.11387L 2.37575 2.38987L 0.926253 3.7679L 2.56525 5.4919L 4.01475 4.11387ZM 2.28037 2.30178C 1.79022 1.90481 1.30563 1.8213 0.886002 1.82801L 0.917997 3.82776C 0.981998 3.82673 0.993761 3.83266 0.986511 3.8305C 0.983368 3.82957 0.982359 3.8288 0.985194 3.83032C 0.988501 3.83209 1.00056 3.83893 1.02163 3.85599L 2.28037 2.30178ZM 0.755096 1.83873C 0.382191 1.89412 0.0223864 2.04659 -0.284437 2.28805L 0.952438 3.85972C 0.983615 3.83518 1.01781 3.82165 1.0489 3.81704L 0.755096 1.83873ZM -0.318868 2.31641C -0.75161 2.68939 -1 3.23502 -1 3.81089L 0.999999 3.81089C 0.999999 3.81075 0.999611 3.82037 0.986869 3.83136L -0.318868 2.31641ZM -0.999069 3.85405C -0.988671 4.09469 -0.942503 4.37851 -0.826182 4.62777L 0.986184 3.782C 0.992177 3.79484 0.996425 3.80527 0.99928 3.81277C 1.00216 3.82033 1.00402 3.82595 1.0051 3.82938C 1.00714 3.8359 1.00711 3.83697 1.0061 3.83209C 1.00514 3.82745 1.00367 3.81927 1.00227 3.80776C 1.00089 3.79635 0.999721 3.78286 0.999067 3.76772L -0.999069 3.85405ZM -0.804308 4.67179L -0.455309 5.33279L 1.31331 4.39898L 0.96431 3.73798L -0.804308 4.67179Z"/>
<path id="path2_fill" d="M 0.429 4.86776C 0.502 4.99276 0.567 5.11576 0.63 5.23576C 0.696 5.36376 0.767999 5.49376 0.835999 5.61776L 1.348 6.55775C 1.421 6.68275 1.487 6.79876 1.559 6.93576L 1.882 7.52776C 2.009 7.76076 2.248 8.00876 2.484 8.15676C 2.684 8.28676 2.923 8.35576 3.176 8.35576C 3.623 8.35576 4.091 8.14376 4.401 7.79976C 4.549 7.63376 4.695 7.46176 4.84 7.28976L 5.137 6.94076C 5.569 6.42276 6.006 5.90576 6.445 5.38876L 7.972 3.58376C 8.355 3.12576 8.738 2.66676 9.137 2.20576L 9.6 1.64176C 10.027 1.18876 9.893 0.656758 9.697 0.410758C 9.351 -0.0252424 8.816 -0.128244 8.409 0.169756C 8.096 0.403756 7.818 0.666757 7.545 0.925757C 7.096 1.34176 6.641 1.74976 6.183 2.15976L 5.67 2.63276C 5.341 2.93576 5.011 3.23876 4.677 3.53976L 3.29 4.80376L 1.652 3.08076C 1.388 2.86576 1.145 2.81476 0.898 2.82876C 0.697 2.85876 0.501001 2.94276 0.334001 3.07476C 0.124001 3.25576 -9.30786e-07 3.52376 -9.30786e-07 3.81176C 0.00699907 3.97376 0.0380009 4.11576 0.0800009 4.20576L 0.429 4.86776Z"/>
<path id="path3_stroke_2x" d="M 0.429 4.86776L -0.455599 5.33411L -0.445476 5.35331L -0.434528 5.37206L 0.429 4.86776ZM 0.63 5.23576L 1.51883 4.77745L 1.5154 4.77092L 0.63 5.23576ZM 0.835999 5.61776L 1.71418 5.13942L 1.71281 5.13692L 0.835999 5.61776ZM 1.348 6.55775L 0.46982 7.03608L 0.476953 7.04918L 0.484472 7.06206L 1.348 6.55775ZM 1.559 6.93576L 0.673801 7.40097L 0.677428 7.40787L 0.681162 7.41472L 1.559 6.93576ZM 1.882 7.52776L 2.76004 7.04917L 2.75984 7.0488L 1.882 7.52776ZM 2.484 8.15676L 3.02899 7.31831L 3.02217 7.31389L 3.01529 7.30957L 2.484 8.15676ZM 4.401 7.79976L 5.14388 8.46921L 5.14742 8.46523L 4.401 7.79976ZM 4.84 7.28976L 4.07843 6.64166L 4.07543 6.64521L 4.84 7.28976ZM 5.137 6.94076L 5.8986 7.58888L 5.90498 7.58123L 5.137 6.94076ZM 6.445 5.38876L 7.20727 6.03602L 7.20845 6.03462L 6.445 5.38876ZM 7.972 3.58376L 8.73546 4.22963L 8.73912 4.22526L 7.972 3.58376ZM 9.137 2.20576L 9.89312 2.86019L 9.90165 2.85033L 9.90992 2.84026L 9.137 2.20576ZM 9.6 1.64176L 8.87232 0.955841L 8.84882 0.980772L 8.82708 1.00725L 9.6 1.64176ZM 9.697 0.410758L 8.91368 1.03238L 8.91489 1.0339L 9.697 0.410758ZM 8.409 0.169756L 7.81821 -0.63713L 7.81023 -0.631164L 8.409 0.169756ZM 7.545 0.925757L 8.22468 1.65936L 8.23326 1.65122L 7.545 0.925757ZM 6.183 2.15976L 5.51601 1.41469L 5.51054 1.41959L 5.50514 1.42457L 6.183 2.15976ZM 5.67 2.63276L 6.34744 3.36833L 6.34786 3.36794L 5.67 2.63276ZM 4.677 3.53976L 4.00753 2.79689L 4.00342 2.80064L 4.677 3.53976ZM 3.29 4.80376L 2.56524 5.49276L 3.23987 6.2024L 3.96357 5.54288L 3.29 4.80376ZM 1.652 3.08076L 2.37676 2.39175L 2.33287 2.34559L 2.28348 2.30536L 1.652 3.08076ZM 0.898 2.82876L 0.84141 1.83036L 0.795682 1.83295L 0.750381 1.83971L 0.898 2.82876ZM 0.334001 3.07476L -0.286101 2.29024L -0.302771 2.30341L -0.318868 2.31729L 0.334001 3.07476ZM -9.30786e-07 3.81176L -1 3.81176L -1 3.83335L -0.999069 3.85493L -9.30786e-07 3.81176ZM 0.0800009 4.20576L -0.826182 4.62864L -0.815918 4.65064L -0.804598 4.67211L 0.0800009 4.20576ZM -0.434528 5.37206C -0.374166 5.47542 -0.318553 5.5803 -0.255398 5.70059L 1.5154 4.77092C 1.45255 4.65122 1.37817 4.5101 1.29253 4.36346L -0.434528 5.37206ZM -0.258803 5.69405C -0.185419 5.83637 -0.105545 5.98055 -0.0408129 6.09859L 1.71281 5.13692C 1.64154 5.00696 1.57742 4.89115 1.5188 4.77747L -0.258803 5.69405ZM -0.0421809 6.09609L 0.46982 7.03608L 2.22618 6.07943L 1.71418 5.13943L -0.0421809 6.09609ZM 0.484472 7.06206C 0.553542 7.18033 0.611396 7.28223 0.673801 7.40097L 2.4442 6.47054C 2.3626 6.31529 2.28846 6.18518 2.21153 6.05345L 0.484472 7.06206ZM 0.681162 7.41472L 1.00416 8.00671L 2.75984 7.0488L 2.43684 6.4568L 0.681162 7.41472ZM 1.00396 8.00634C 1.21923 8.40129 1.58283 8.77199 1.95271 9.00395L 3.01529 7.30957C 2.91317 7.24553 2.79877 7.12022 2.76004 7.04917L 1.00396 8.00634ZM 1.93901 8.9952C 2.31032 9.23655 2.74068 9.35576 3.176 9.35576L 3.176 7.35576C 3.10532 7.35576 3.05768 7.33696 3.02899 7.31831L 1.93901 8.9952ZM 3.176 9.35576C 3.91669 9.35576 4.65133 9.01575 5.14386 8.4692L 3.65814 7.13031C 3.53067 7.27176 3.32931 7.35576 3.176 7.35576L 3.176 9.35576ZM 5.14742 8.46523C 5.30536 8.28808 5.45903 8.10694 5.60456 7.9343L 4.07543 6.64521C 3.93097 6.81658 3.79264 6.97943 3.65458 7.13428L 5.14742 8.46523ZM 5.60156 7.93785L 5.89856 7.58885L 4.37544 6.29266L 4.07844 6.64166L 5.60156 7.93785ZM 5.90498 7.58123C 6.33426 7.06649 6.76912 6.55202 7.20727 6.03602L 5.68273 4.74149C 5.24288 5.25949 4.80374 5.77903 4.36902 6.30028L 5.90498 7.58123ZM 7.20845 6.03462L 8.73545 4.22962L 7.20855 2.93789L 5.68155 4.74289L 7.20845 6.03462ZM 8.73912 4.22526C 9.12364 3.76544 9.5008 3.31348 9.89312 2.86019L 8.38088 1.55133C 7.9752 2.02004 7.58636 2.48607 7.20488 2.94225L 8.73912 4.22526ZM 9.90992 2.84026L 10.3729 2.27626L 8.82708 1.00725L 8.36408 1.57125L 9.90992 2.84026ZM 10.3277 2.32767C 11.1689 1.43526 10.9139 0.333377 10.4791 -0.212385L 8.91489 1.0339C 8.90246 1.0183 8.89544 1.00672 8.89185 1.00023C 8.88811 0.993483 8.88625 0.988939 8.88532 0.986402C 8.88376 0.982134 8.8825 0.977184 8.88234 0.969614C 8.88215 0.960211 8.88385 0.948851 8.88755 0.939061C 8.89163 0.928285 8.89231 0.934628 8.87232 0.955841L 10.3277 2.32767ZM 10.4803 -0.210865C 9.86241 -0.989504 8.73489 -1.30825 7.81824 -0.637089L 8.99976 0.976602C 8.9937 0.981043 8.9778 0.990356 8.95329 0.995884C 8.92917 1.00132 8.90696 1.00078 8.89045 0.997665C 8.85581 0.991129 8.87259 0.980594 8.91368 1.03238L 10.4803 -0.210865ZM 7.81023 -0.631164C 7.44315 -0.356732 7.12444 -0.0536832 6.85674 0.200293L 8.23326 1.65122C 8.51155 1.3872 8.74885 1.16424 9.00777 0.970677L 7.81023 -0.631164ZM 6.86536 0.192208C 6.42347 0.601621 5.97447 1.00428 5.51601 1.41469L 6.84998 2.90483C 7.30753 2.49523 7.76853 2.08189 8.22464 1.65931L 6.86536 0.192208ZM 5.50514 1.42457L 4.99214 1.89757L 6.34786 3.36794L 6.86086 2.89494L 5.50514 1.42457ZM 4.99256 1.89718C 4.66396 2.19981 4.33729 2.49974 4.00754 2.79691L 5.34646 4.28261C 5.68471 3.97778 6.01803 3.67171 6.34744 3.36833L 4.99256 1.89718ZM 4.00342 2.80064L 2.61643 4.06464L 3.96357 5.54288L 5.35057 4.27888L 4.00342 2.80064ZM 4.01476 4.11475L 2.37676 2.39175L 0.927242 3.76976L 2.56524 5.49276L 4.01476 4.11475ZM 2.28348 2.30536C 1.80609 1.91658 1.3107 1.80376 0.84141 1.83036L 0.954589 3.82715C 0.972833 3.82612 0.981423 3.82683 0.983261 3.82702C 0.9845 3.82714 0.981952 3.82692 0.977843 3.82567C 0.97367 3.8244 0.973529 3.82379 0.978528 3.82652C 0.983937 3.82947 0.997943 3.83776 1.02052 3.85615L 2.28348 2.30536ZM 0.750381 1.83971C 0.375195 1.89571 0.0166161 2.05096 -0.286101 2.29024L 0.954102 3.85928C 0.985385 3.83455 1.0188 3.8218 1.04562 3.8178L 0.750381 1.83971ZM -0.318868 2.31729C -0.751608 2.69027 -1 3.23589 -1 3.81176L 0.999999 3.81176C 0.999999 3.81162 0.999609 3.82125 0.986869 3.83223L -0.318868 2.31729ZM -0.999069 3.85493C -0.988671 4.09556 -0.942503 4.37938 -0.826182 4.62864L 0.986184 3.78287C 0.992177 3.79571 0.996425 3.80614 0.999281 3.81364C 1.00216 3.8212 1.00402 3.82682 1.0051 3.83025C 1.00714 3.83677 1.00711 3.83785 1.0061 3.83296C 1.00514 3.82833 1.00367 3.82014 1.00227 3.80863C 1.00089 3.79722 0.999721 3.78373 0.999067 3.76859L -0.999069 3.85493ZM -0.804598 4.67211L -0.455599 5.33411L 1.3136 4.4014L 0.9646 3.73941L -0.804598 4.67211Z"/>
<path id="path4_fill" d="M 1.508 3.016L 16.329 3.016C 17.161 3.016 17.837 2.339 17.837 1.508C 17.837 0.676 17.16 8.23975e-07 16.329 8.23975e-07L 1.508 8.23975e-07C 0.676 8.23975e-07 9.46045e-07 0.677 9.46045e-07 1.508C 9.46045e-07 2.339 0.677 3.016 1.508 3.016Z"/>
<path id="path5_stroke_2x" d="M 1.508 4.016L 16.329 4.016L 16.329 2.016L 1.508 2.016L 1.508 4.016ZM 16.329 4.016C 17.7137 4.016 18.837 2.89085 18.837 1.508L 16.837 1.508C 16.837 1.78715 16.6083 2.016 16.329 2.016L 16.329 4.016ZM 18.837 1.508C 18.837 0.123284 17.7119 -0.999999 16.329 -0.999999L 16.329 1C 16.6081 1 16.837 1.22872 16.837 1.508L 18.837 1.508ZM 16.329 -0.999999L 1.508 -0.999999L 1.508 1L 16.329 1L 16.329 -0.999999ZM 1.508 -0.999999C 0.123284 -0.999999 -0.999999 0.125147 -0.999999 1.508L 1 1.508C 1 1.22885 1.22872 1 1.508 1L 1.508 -0.999999ZM -0.999999 1.508C -0.999999 2.89129 0.124716 4.016 1.508 4.016L 1.508 2.016C 1.22929 2.016 1 1.78672 1 1.508L -0.999999 1.508Z"/>
<path id="path6_fill" d="M 16.329 1.98364e-07L 1.508 1.98364e-07C 0.676 1.98364e-07 9.46045e-07 0.677002 9.46045e-07 1.508C 9.46045e-07 2.34 0.677 3.016 1.508 3.016L 16.329 3.016C 17.161 3.016 17.837 2.339 17.837 1.508C 17.837 0.677002 17.161 1.98364e-07 16.329 1.98364e-07Z"/>
<path id="path7_stroke_2x" d="M 17.837 1.508L 18.837 1.508L 17.837 1.508ZM 16.329 -1L 1.508 -1L 1.508 1L 16.329 1L 16.329 -1ZM 1.508 -1C 0.123282 -1 -0.999999 0.12515 -0.999999 1.508L 1 1.508C 1 1.22885 1.22872 1 1.508 1L 1.508 -1ZM -0.999999 1.508C -0.999999 2.89272 0.125147 4.016 1.508 4.016L 1.508 2.016C 1.22885 2.016 1 1.78729 1 1.508L -0.999999 1.508ZM 1.508 4.016L 16.329 4.016L 16.329 2.016L 1.508 2.016L 1.508 4.016ZM 16.329 4.016C 17.7137 4.016 18.837 2.89085 18.837 1.508L 16.837 1.508C 16.837 1.78715 16.6083 2.016 16.329 2.016L 16.329 4.016ZM 18.837 1.508C 18.837 0.12515 17.7137 -1 16.329 -1L 16.329 1C 16.6083 1 16.837 1.22885 16.837 1.508L 18.837 1.508Z"/>
<path id="path8_fill" d="M 16.329 -4.27246e-07L 1.508 -4.27246e-07C 0.676 -4.27246e-07 9.46045e-07 0.676999 9.46045e-07 1.508C 9.46045e-07 2.34 0.677 3.016 1.508 3.016L 16.329 3.016C 17.161 3.016 17.837 2.339 17.837 1.508C 17.837 0.675999 17.161 -4.27246e-07 16.329 -4.27246e-07Z"/>
<path id="path9_stroke_2x" d="M 17.837 1.508L 18.837 1.508L 17.837 1.508ZM 16.329 -1L 1.508 -1L 1.508 1L 16.329 1L 16.329 -1ZM 1.508 -1C 0.123284 -1 -0.999999 0.125146 -0.999999 1.508L 1 1.508C 1 1.22885 1.22872 1 1.508 1L 1.508 -1ZM -0.999999 1.508C -0.999999 2.89272 0.125147 4.016 1.508 4.016L 1.508 2.016C 1.22885 2.016 1 1.78728 1 1.508L -0.999999 1.508ZM 1.508 4.016L 16.329 4.016L 16.329 2.016L 1.508 2.016L 1.508 4.016ZM 16.329 4.016C 17.7137 4.016 18.837 2.89085 18.837 1.508L 16.837 1.508C 16.837 1.78715 16.6083 2.016 16.329 2.016L 16.329 4.016ZM 18.837 1.508C 18.837 0.123714 17.7133 -1 16.329 -1L 16.329 1C 16.6087 1 16.837 1.22828 16.837 1.508L 18.837 1.508Z"/>
<path id="path10_fill" d="M 5.594 4.88281e-07C 2.509 4.88281e-07 -8.39233e-07 2.51 -8.39233e-07 5.593C -8.39233e-07 8.677 2.51 11.186 5.594 11.186C 8.678 11.186 11.186 8.676 11.186 5.593C 11.186 2.509 8.678 4.88281e-07 5.594 4.88281e-07ZM 9.091 5.593C 9.091 7.521 7.522 9.09 5.594 9.09C 3.665 9.09 2.096 7.521 2.096 5.593C 2.096 3.664 3.665 2.095 5.594 2.095C 7.522 2.095 9.091 3.664 9.091 5.593Z"/>
<path id="path11_stroke_2x" d="M 5.594 2.095L 5.594 3.095L 5.594 2.095ZM 5.594 -1C 1.95672 -1 -1 1.95771 -1 5.593L 0.999999 5.593C 0.999999 3.06228 3.06128 1 5.594 1L 5.594 -1ZM -1 5.593C -1 9.22952 1.95795 12.186 5.594 12.186L 5.594 10.186C 3.06205 10.186 0.999999 8.12448 0.999999 5.593L -1 5.593ZM 5.594 12.186C 9.23064 12.186 12.186 9.22793 12.186 5.593L 10.186 5.593C 10.186 8.12406 8.12537 10.186 5.594 10.186L 5.594 12.186ZM 12.186 5.593C 12.186 1.95695 9.23052 -1 5.594 -1L 5.594 1C 8.12548 1 10.186 3.06105 10.186 5.593L 12.186 5.593ZM 8.091 5.593C 8.091 6.96872 6.96972 8.09 5.594 8.09L 5.594 10.09C 8.07429 10.09 10.091 8.07328 10.091 5.593L 8.091 5.593ZM 5.594 8.09C 4.2171 8.09 3.096 6.96853 3.096 5.593L 1.096 5.593C 1.096 8.07347 3.1129 10.09 5.594 10.09L 5.594 8.09ZM 3.096 5.593C 3.096 4.21629 4.21728 3.095 5.594 3.095L 5.594 1.095C 3.11272 1.095 1.096 3.11171 1.096 5.593L 3.096 5.593ZM 5.594 3.095C 6.96953 3.095 8.091 4.2161 8.091 5.593L 10.091 5.593C 10.091 3.1119 8.07447 1.095 5.594 1.095L 5.594 3.095Z"/>
<path id="path12_fill" d="M 45.091 -5.43594e-08L 6.905 -5.43594e-08C 3.105 -5.43594e-08 -1.8692e-07 3.093 -1.8692e-07 6.905L -1.8692e-07 55.02C -1.8692e-07 58.832 3.105 61.937 6.905 61.937L 45.091 61.937C 48.903 61.937 52.008 58.832 52.008 55.02L 52.008 6.905C 52.008 3.093 48.903 -5.43594e-08 45.091 -5.43594e-08ZM 48.463 55.02C 48.463 56.874 46.945 58.391 45.092 58.391L 6.905 58.391C 5.051 58.391 3.545 56.873 3.545 55.02L 3.545 6.905C 3.545 5.051 5.051 3.545 6.905 3.545L 45.091 3.545C 46.945 3.545 48.462 5.051 48.462 6.905L 48.462 55.02L 48.463 55.02Z"/>
<path id="path13_stroke_2x" d="M 52.008 6.905L 53.008 6.905L 52.008 6.905ZM 48.463 55.02L 49.463 55.02L 49.463 54.02L 48.463 54.02L 48.463 55.02ZM 48.462 55.02L 47.462 55.02L 47.462 56.02L 48.462 56.02L 48.462 55.02ZM 45.091 -1L 6.905 -1L 6.905 1L 45.091 1L 45.091 -1ZM 6.905 -1C 2.55385 -1 -1 2.53958 -1 6.905L 1 6.905C 1 3.64642 3.65615 1 6.905 1L 6.905 -1ZM -1 6.905L -1 55.02L 1 55.02L 1 6.905L -1 6.905ZM -1 55.02C -1 59.3832 2.55159 62.937 6.905 62.937L 6.905 60.937C 3.65841 60.937 1 58.2808 1 55.02L -1 55.02ZM 6.905 62.937L 45.091 62.937L 45.091 60.937L 6.905 60.937L 6.905 62.937ZM 45.091 62.937C 49.4553 62.937 53.008 59.3843 53.008 55.02L 51.008 55.02C 51.008 58.2797 48.3507 60.937 45.091 60.937L 45.091 62.937ZM 53.008 55.02L 53.008 6.905L 51.008 6.905L 51.008 55.02L 53.008 55.02ZM 53.008 6.905C 53.008 2.53846 49.453 -1 45.091 -1L 45.091 1C 48.353 1 51.008 3.64754 51.008 6.905L 53.008 6.905ZM 47.463 55.02C 47.463 56.3215 46.3929 57.391 45.092 57.391L 45.092 59.391C 47.4971 59.391 49.463 57.4265 49.463 55.02L 47.463 55.02ZM 45.092 57.391L 6.905 57.391L 6.905 59.391L 45.092 59.391L 45.092 57.391ZM 6.905 57.391C 5.60773 57.391 4.545 56.3252 4.545 55.02L 2.545 55.02C 2.545 57.4208 4.49427 59.391 6.905 59.391L 6.905 57.391ZM 4.545 55.02L 4.545 6.905L 2.545 6.905L 2.545 55.02L 4.545 55.02ZM 4.545 6.905C 4.545 5.60328 5.60328 4.545 6.905 4.545L 6.905 2.545C 4.49872 2.545 2.545 4.49871 2.545 6.905L 4.545 6.905ZM 6.905 4.545L 45.091 4.545L 45.091 2.545L 6.905 2.545L 6.905 4.545ZM 45.091 4.545C 46.397 4.545 47.462 5.60753 47.462 6.905L 49.462 6.905C 49.462 4.49447 47.493 2.545 45.091 2.545L 45.091 4.545ZM 47.462 6.905L 47.462 55.02L 49.462 55.02L 49.462 6.905L 47.462 6.905ZM 48.462 56.02L 48.463 56.02L 48.463 54.02L 48.462 54.02L 48.462 56.02Z"/>
</defs>
</svg>
