<svg width="59" height="59" viewBox="0 0 59 59" version="1.1" xmlns="http://www.w3.org/2000/svg" xmlns:xlink="http://www.w3.org/1999/xlink">
<title>noun_855654_cc</title>
<desc>Created using Figma</desc>
<g id="Canvas" transform="translate(589 -4508)">
<g id="noun_855654_cc">
<g id="Vector">
<use xlink:href="#path0_fill" transform="translate(-589 4508)" fill="#5386E4"/>
</g>
<g id="Vector">
<use xlink:href="#path1_fill" transform="translate(-582.443 4525.59)" fill="#5386E4"/>
</g>
</g>
</g>
<defs>
<path id="path0_fill" d="M 29.5 1.96667C 44.682 1.96667 57.0333 14.318 57.0333 29.5C 57.0333 44.682 44.682 57.0333 29.5 57.0333C 14.318 57.0333 1.96667 44.682 1.96667 29.5C 1.96667 14.318 14.318 1.96667 29.5 1.96667ZM 29.5 0C 13.2075 0 0 13.2075 0 29.5C 0 45.7925 13.2075 59 29.5 59C 45.7925 59 59 45.7925 59 29.5C 59 13.2075 45.7925 0 29.5 0Z"/>
<path id="path1_fill" d="M 44.3759 1.90504L 38.7171 7.5638C 38.0989 7.17309 37.3693 6.94299 36.5852 6.94299C 35.4728 6.94299 34.4652 7.39991 33.7388 8.13479L 29.1984 5.31197C 29.3407 4.90159 29.422 4.46302 29.422 4.00545C 29.422 1.79688 27.6251 4.60137e-07 25.4165 4.60137e-07C 23.208 4.60137e-07 21.4111 1.79688 21.4111 4.00545C 21.4111 5.32049 22.0516 6.48672 23.0336 7.21701L 19.2202 15.8762C 18.9731 15.8284 18.7181 15.8015 18.4572 15.8015C 17.5735 15.8015 16.7586 16.0926 16.0959 16.579L 11.7974 12.8417C 12.1009 12.2779 12.2746 11.6335 12.2746 10.9491C 12.2746 8.74052 10.4777 6.94364 8.26918 6.94364C 6.06061 6.94364 4.26373 8.74052 4.26373 10.9491C 4.26373 11.7331 4.49383 12.4628 4.88454 13.0816L 0.2596 17.7066C -0.0865335 18.052 -0.0865335 18.6132 0.2596 18.9587C 0.432667 19.1317 0.658834 19.2183 0.885656 19.2183C 1.11248 19.2183 1.33864 19.1317 1.51171 18.9587L 6.13666 14.3337C 6.75485 14.7251 7.48513 14.9545 8.26983 14.9545C 9.15418 14.9545 9.96969 14.6628 10.6331 14.1757L 14.9303 17.9124C 14.6261 18.4768 14.4524 19.1219 14.4524 19.807C 14.4524 22.0155 16.2493 23.8124 18.4578 23.8124C 20.6664 23.8124 22.4633 22.0155 22.4633 19.807C 22.4633 18.4913 21.8228 17.325 20.8395 16.5941L 24.6528 7.9355C 24.9006 7.98336 25.1563 8.01089 25.4179 8.01089C 26.5316 8.01089 27.5399 7.55331 28.2662 6.81712L 32.806 9.63929C 32.6611 10.0497 32.5798 10.4895 32.5798 10.9484C 32.5798 13.157 34.3767 14.9539 36.5852 14.9539C 38.7938 14.9539 40.5907 13.157 40.5907 10.9484C 40.5907 10.1644 40.3606 9.4341 39.9699 8.81591L 45.6286 3.15715C 45.9748 2.81168 45.9748 2.25118 45.6286 1.90504C 45.2825 1.55891 44.722 1.55891 44.3759 1.90504ZM 8.26787 13.1826C 7.03542 13.1826 6.03308 12.1802 6.03308 10.9478C 6.03308 9.71533 7.03542 8.71299 8.26787 8.71299C 9.49966 8.71299 10.502 9.71533 10.502 10.9478C 10.502 12.1802 9.49966 13.1826 8.26787 13.1826ZM 18.4559 22.0404C 17.2241 22.0404 16.2211 21.0381 16.2211 19.8056C 16.2211 18.5739 17.2234 17.5715 18.4559 17.5715C 19.6876 17.5715 20.6906 18.5739 20.6906 19.8056C 20.6906 21.0381 19.6883 22.0404 18.4559 22.0404ZM 25.4159 6.23958C 24.1834 6.23958 23.1811 5.23723 23.1811 4.00545C 23.1811 2.77366 24.1834 1.77066 25.4159 1.77066C 26.6477 1.77066 27.6507 2.773 27.6507 4.00545C 27.6507 5.23658 26.6477 6.23958 25.4159 6.23958ZM 36.5852 13.1826C 35.3535 13.1826 34.3505 12.1802 34.3505 10.9478C 34.3505 9.71533 35.3528 8.71299 36.5852 8.71299C 37.2008 8.71299 37.7587 8.96341 38.1632 9.36723C 38.1632 9.36723 38.1632 9.36789 38.1638 9.36789L 38.1645 9.36855C 38.569 9.77302 38.8194 10.3316 38.8194 10.9471C 38.8194 12.1802 37.817 13.1826 36.5852 13.1826Z"/>
</defs>
</svg>
