<svg width="103" height="67" viewBox="0 0 103 67" version="1.1" xmlns="http://www.w3.org/2000/svg" xmlns:xlink="http://www.w3.org/1999/xlink">
<title>ICO_Anatomy_Logo-Final</title>
<desc>Created using Figma</desc>
<g id="Canvas" transform="translate(657 -4922)">
<g id="ICO_Anatomy_Logo-Final">
<g id="g10">
<g id="path12">
<use xlink:href="#path0_fill" transform="matrix(1.25 0 0 -1.25 -657 4988.86)" fill="#5386E4"/>
</g>
<g id="g14">
<g id="g16">
<g id="g22">
<g id="path24">
<use xlink:href="#path1_fill" transform="matrix(1.25 0 0 -1.25 -651.103 4989)" fill="#5386E4"/>
</g>
</g>
<g id="g26">
<g id="path28">
<use xlink:href="#path2_fill" transform="matrix(1.25 0 0 -1.25 -640.928 4988.98)" fill="#5386E4"/>
</g>
</g>
<g id="g30">
<g id="path32">
<use xlink:href="#path3_fill" transform="matrix(1.25 0 0 -1.25 -630.286 4988.87)" fill="#3B5673"/>
</g>
</g>
<g id="g34">
<g id="path36">
<use xlink:href="#path4_fill" transform="matrix(1.25 0 0 -1.25 -618.34 4988.87)" fill="#3B5673"/>
</g>
</g>
<g id="g38">
<g id="path40">
<use xlink:href="#path5_fill" transform="matrix(1.25 0 0 -1.25 -606.161 4988.87)" fill="#3B5673"/>
</g>
</g>
<g id="g42">
<g id="path44">
<use xlink:href="#path6_fill" transform="matrix(1.25 0 0 -1.25 -595.802 4988.86)" fill="#3B5673"/>
</g>
</g>
<g id="g46">
<g id="path48">
<use xlink:href="#path7_fill" transform="matrix(1.25 0 0 -1.25 -586.045 4988.98)" fill="#3B5673"/>
</g>
</g>
<g id="g50">
<g id="path52">
<use xlink:href="#path8_fill" transform="matrix(1.25 0 0 -1.25 -574.818 4988.87)" fill="#3B5673"/>
</g>
</g>
<g id="g54">
<g id="path56">
<use xlink:href="#path9_fill" transform="matrix(1.25 0 0 -1.25 -560.635 4988.86)" fill="#3B5673"/>
</g>
</g>
<g id="g58">
<g id="path60">
<use xlink:href="#path10_fill" transform="matrix(1.25 0 0 -1.25 -623.803 4964.67)" fill="#3B5673"/>
</g>
</g>
<g id="g62">
<g id="path64">
<use xlink:href="#path11_fill" transform="matrix(1.25 0 0 -1.25 -623.803 4954)" fill="#5386E4"/>
</g>
</g>
<g id="g66">
<g id="path68">
<use xlink:href="#path12_fill" transform="matrix(1.25 0 0 -1.25 -623.803 4964.67)" fill="#456990"/>
</g>
</g>
</g>
</g>
</g>
</g>
</g>
<defs>
<path id="path0_fill" d="M -1.92967e-06 8.69193L 0.841928 8.69193L 0.841928 2.18198e-06L -1.92967e-06 2.18198e-06L -1.92967e-06 8.69193Z"/>
<path id="path1_fill" d="M 2.41987 0C 1.17611 0 6.15083e-08 0.661367 6.15083e-08 1.93016L 6.15083e-08 6.77518C 6.15083e-08 8.08451 1.16251 8.93483 2.4597 8.93483C 3.43536 8.93483 4.21058 8.5435 4.57195 8.11132L 4.10404 7.42314C 3.68924 7.88182 2.96777 8.09791 2.48626 8.09791C 1.79103 8.09791 0.89599 7.65296 0.89599 6.72155L 0.89599 2.05145C 0.89599 1.12037 1.96492 0.78266 2.55297 0.78266C 3.0212 0.78266 3.89032 0.998753 4.4379 1.40317L 4.73224 0.647961C 4.21058 0.283443 3.44864 0 2.41987 0Z"/>
<path id="path2_fill" d="M 4.2109 6.88338C 4.2109 7.81447 3.1543 8.12504 2.57984 8.12504C 1.99147 8.12504 0.895357 7.81447 0.895357 6.88338L 0.895357 2.06486C 0.895357 1.13377 1.99147 0.782659 2.57984 0.782659C 3.1543 0.782659 4.2109 1.13377 4.2109 2.06486L 4.2109 6.88338ZM 2.56625 -1.70467e-07C 1.30921 -1.70467e-07 -7.71868e-08 0.688179 -7.71868e-08 1.99719L -7.71868e-08 6.9236C -7.71868e-08 8.23293 1.30921 8.92143 2.56625 8.92143C 3.80969 8.92143 5.10594 8.23293 5.10594 6.9236L 5.10594 1.99719C 5.10594 0.688179 3.80969 -1.70467e-07 2.56625 -1.70467e-07Z"/>
<path id="path3_fill" d="M 3.15462 7.62551L 2.9273 7.62551L 1.84509 3.5092L 4.23777 3.5092L 3.15462 7.62551ZM 5.14704 1.9482e-07L 4.45149 2.65887L 1.63074 2.65887L 0.935825 1.9482e-07L 9.88956e-08 1.9482e-07L 2.44674 8.69225L 3.70252 8.69225L 6.14926 1.9482e-07L 5.14704 1.9482e-07Z"/>
<path id="path4_fill" d="M 6.20237 0L 5.41388 0L 0.707876 7.36919C 0.707876 7.36919 0.868484 6.97786 0.868484 6.61367L 0.868484 0L -9.64835e-09 0L -9.64835e-09 8.69193L 0.868484 8.69193L 5.09329 2.02464C 5.28046 1.72779 5.34717 1.40381 5.34717 1.40381L 5.34717 8.69193L 6.20237 8.69193L 6.20237 0Z"/>
<path id="path5_fill" d="M 3.15493 7.62551L 2.92793 7.62551L 1.84478 3.5092L 4.23809 3.5092L 3.15493 7.62551ZM 5.14641 1.9482e-07L 4.45213 2.65887L 1.63106 2.65887L 0.935509 1.9482e-07L -2.89451e-08 1.9482e-07L 2.44642 8.69225L 3.70315 8.69225L 6.14989 1.9482e-07L 5.14641 1.9482e-07Z"/>
<path id="path6_fill" d="M 4.79927 7.86841L 2.92762 7.86841L 2.92762 2.971e-07L 2.03163 2.971e-07L 2.03163 7.86841L -9.64835e-08 7.86841L -9.64835e-08 8.70533L 4.933 8.70533L 4.79927 7.86841Z"/>
<path id="path7_fill" d="M 4.21058 6.88338C 4.21058 7.81447 3.15493 8.12504 2.58016 8.12504C 1.99179 8.12504 0.895674 7.81447 0.895674 6.88338L 0.895674 2.06486C 0.895674 1.13377 1.99179 0.782659 2.58016 0.782659C 3.15493 0.782659 4.21058 1.13377 4.21058 2.06486L 4.21058 6.88338ZM 2.56688 -1.70467e-07C 1.30984 -1.70467e-07 5.06539e-08 0.688179 5.06539e-08 1.99719L 5.06539e-08 6.9236C 5.06539e-08 8.23293 1.30984 8.92143 2.56688 8.92143C 3.80969 8.92143 5.10657 8.23293 5.10657 6.9236L 5.10657 1.99719C 5.10657 0.688179 3.80969 -1.70467e-07 2.56688 -1.70467e-07Z"/>
<path id="path8_fill" d="M 6.9915 0L 6.9915 5.85782C 6.9915 6.22202 7.11164 6.77582 7.11164 6.77582L 4.34463 0.0405374L 3.50207 0.0405374L 0.681319 6.77582C 0.681319 6.77582 0.788496 6.22202 0.788496 5.88463L 0.788496 0L 0.0132784 0L -1.01308e-07 8.69193L 0.801775 8.69193L 3.99686 1.22857L 7.07149 8.69193L 7.87358 8.69193L 7.87358 0L 6.9915 0Z"/>
<path id="path9_fill" d="M 3.08822 3.21203L 3.08822 8.76688e-08L 2.21974 8.76688e-08L 2.21974 3.21203L 1.10956e-07 8.69193L 0.94942 8.69193L 2.55329 4.45369C 2.63391 4.25132 2.66046 4.03555 2.66046 4.03555C 2.66046 4.03555 2.7003 4.29186 2.76764 4.45369L 4.3851 8.69193L 5.30765 8.69193L 3.08822 3.21203Z"/>
<path id="path10_fill" d="M 0 25.605L 14.6419 34.1392L 29.2837 25.605L 29.2837 8.5352L 14.6419 -7.40314e-07L 0 8.5352L 0 25.605Z"/>
<path id="path11_fill" d="M 14.6419 25.604L 14.6419 8.53425L -8.68352e-08 1.16892e-06L -8.68352e-08 17.0698L 14.6419 25.604Z"/>
<path id="path12_fill" d="M 0 8.5352L 14.6419 17.0695L 29.2837 8.5352L 14.6419 7.30573e-08L 0 8.5352Z"/>
</defs>
</svg>
