<svg width="36" height="36" viewBox="0 0 36 36" version="1.1" xmlns="http://www.w3.org/2000/svg" xmlns:xlink="http://www.w3.org/1999/xlink">
<title>facebook</title>
<desc>Created using Figma</desc>
<g id="Canvas" transform="translate(190 -1319)">
<g id="facebook">
<g id="Vector">
<use xlink:href="#path0_fill" transform="translate(-190 1319)" fill="#475993"/>
</g>
</g>
</g>
<defs>
<path id="path0_fill" d="M 31.1488 0L 4.85111 0C 2.17197 0 8.36581e-12 2.17186 8.36581e-12 4.85107L 8.36581e-12 31.1488C 8.36581e-12 33.828 2.17188 35.9998 4.85111 35.9998L 17.821 35.9998L 17.8431 23.1354L 14.5009 23.1354C 14.0666 23.1354 13.7141 22.7842 13.7124 22.3499L 13.6964 18.2032C 13.6947 17.7665 14.0483 17.4115 14.485 17.4115L 17.8211 17.4115L 17.8211 13.4048C 17.8211 8.75492 20.661 6.22304 24.8089 6.22304L 28.2127 6.22304C 28.6482 6.22304 29.0013 6.57609 29.0013 7.01166L 29.0013 10.5082C 29.0013 10.9436 28.6484 11.2966 28.2131 11.2968L 26.1243 11.2978C 23.8685 11.2978 23.4317 12.3697 23.4317 13.9428L 23.4317 17.4116L 28.3885 17.4116C 28.8608 17.4116 29.2272 17.824 29.1715 18.2931L 28.6801 22.4398C 28.633 22.8366 28.2965 23.1356 27.897 23.1356L 23.4538 23.1356L 23.4317 36L 31.149 36C 33.8281 36 36 33.8281 36 31.149L 36 4.85107C 35.9999 2.17186 33.828 0 31.1488 0Z"/>
</defs>
</svg>
