<svg width="26" height="26" viewBox="0 0 26 26" version="1.1" xmlns="http://www.w3.org/2000/svg" xmlns:xlink="http://www.w3.org/1999/xlink">
<title>facebook</title>
<desc>Created using Figma</desc>
<g id="Canvas" transform="translate(-470 -4941)">
<g id="facebook">
<g id="Vector">
<use xlink:href="#path0_fill" transform="translate(470 4941)" fill="#475993"/>
</g>
</g>
</g>
<defs>
<path id="path0_fill" d="M 22.1056 0L 3.44272 0C 1.5414 0 5.93702e-12 1.56857 5.93702e-12 3.50355L 5.93702e-12 22.4963C 5.93702e-12 24.4313 1.54133 25.9999 3.44272 25.9999L 12.6472 25.9999L 12.6628 16.7089L 10.291 16.7089C 9.98273 16.7089 9.73255 16.4553 9.73136 16.1416L 9.71999 13.1467C 9.7188 12.8313 9.96973 12.575 10.2797 12.575L 12.6472 12.575L 12.6472 9.68121C 12.6472 6.32299 14.6626 4.49442 17.6063 4.49442L 20.0219 4.49442C 20.331 4.49442 20.5816 4.7494 20.5816 5.06398L 20.5816 7.58926C 20.5816 7.90371 20.3311 8.15863 20.0222 8.15882L 18.5398 8.15952C 16.9389 8.15952 16.6289 8.93369 16.6289 10.0698L 16.6289 12.5751L 20.1466 12.5751C 20.4818 12.5751 20.7419 12.8729 20.7024 13.2117L 20.3536 16.2065C 20.3202 16.4931 20.0814 16.7091 19.7978 16.7091L 16.6446 16.7091L 16.6289 26L 22.1057 26C 24.007 26 25.5484 24.4314 25.5484 22.4965L 25.5484 3.50355C 25.5483 1.56857 24.007 0 22.1056 0Z"/>
</defs>
</svg>
