<svg width="36" height="36" viewBox="0 0 36 36" version="1.1" xmlns="http://www.w3.org/2000/svg" xmlns:xlink="http://www.w3.org/1999/xlink">
<title>linkedin</title>
<desc>Created using Figma</desc>
<g id="Canvas" transform="translate(40 -1319)">
<g id="linkedin">
<g id="Group">
<g id="Vector">
<use xlink:href="#path0_fill" transform="translate(-40 1319)" fill="#0084B1"/>
</g>
<g id="Group">
<g id="Vector">
<use xlink:href="#path1_fill" transform="translate(-34.5615 1324.47)" fill="#FFFFFF"/>
</g>
<g id="Vector">
<use xlink:href="#path2_fill" transform="translate(-34.1386 1332.8)" fill="#FFFFFF"/>
</g>
<g id="Vector">
<use xlink:href="#path3_fill" transform="translate(-25.6616 1332.37)" fill="#FFFFFF"/>
</g>
</g>
</g>
</g>
</g>
<defs>
<path id="path0_fill" d="M 31 0L 5 0C 2.23858 0 0 2.23858 0 5L 0 31C 0 33.7614 2.23858 36 5 36L 31 36C 33.7614 36 36 33.7614 36 31L 36 5C 36 2.23858 33.7614 0 31 0Z"/>
<path id="path1_fill" d="M 3.034 5.95909e-07C 4.68284 0.00134349 6.04272 1.3632 6.03917 3.02026C 6.03522 4.75536 4.59532 6.0631 3.0137 6.02542C 1.40949 6.05789 -0.000315913 4.71799 6.27467e-08 3.0088C 6.27467e-08 1.35111 1.36517 -0.00126331 3.034 5.95909e-07Z"/>
<path id="path2_fill" d="M 4.36284 16.7309L 0.830148 16.7309C 0.371667 16.7309 -2.84463e-07 16.3593 -2.84463e-07 15.9008L -2.84463e-07 0.830147C -2.84463e-07 0.371666 0.371667 4.14641e-07 0.830148 4.14641e-07L 4.36284 4.14641e-07C 4.82132 4.14641e-07 5.19299 0.371666 5.19299 0.830147L 5.19299 15.9009C 5.19291 16.3593 4.82132 16.7309 4.36284 16.7309Z"/>
<path id="path3_fill" d="M 16.2232 5.72074C 16.2232 2.5613 13.6619 -5.20712e-07 10.5024 -5.20712e-07L 9.59634 -5.20712e-07C 7.8678 -5.20712e-07 6.34069 0.862456 5.42215 2.18071C 5.32198 2.3244 5.22924 2.47362 5.14409 2.62766C 5.11462 2.62323 5.09717 2.62094 5.09677 2.62173L 5.09677 0.77185C 5.09677 0.581554 4.94249 0.427199 4.75212 0.427199L 0.344651 0.427199C 0.154354 0.427199 -5.20712e-07 0.581475 -5.20712e-07 0.77185L -5.20712e-07 16.8137C -5.20712e-07 17.004 0.154196 17.1583 0.344493 17.1584L 4.84802 17.1595C 5.03839 17.1595 5.19275 17.0052 5.19275 16.8148L 5.19275 7.547C 5.19275 5.94501 6.47047 4.61483 8.07239 4.59674C 8.89014 4.5875 9.6315 4.91516 10.1658 5.44979C 10.6931 5.97676 11.0191 6.7054 11.0191 7.50988L 11.0191 16.816C 11.0191 17.0063 11.1734 17.1606 11.3636 17.1607L 15.8783 17.1618C 16.0686 17.1618 16.223 17.0075 16.223 16.8171L 16.223 5.72074L 16.2232 5.72074Z"/>
</defs>
</svg>
