<svg width="26" height="26" viewBox="0 0 26 26" version="1.1" xmlns="http://www.w3.org/2000/svg" xmlns:xlink="http://www.w3.org/1999/xlink">
<title>linkedin</title>
<desc>Created using Figma</desc>
<g id="Canvas" transform="translate(-576 -4941)">
<g id="linkedin">
<g id="Group">
<g id="Vector">
<use xlink:href="#path0_fill" transform="translate(576.452 4941)" fill="#0084B1"/>
</g>
<g id="Group">
<g id="Vector">
<use xlink:href="#path1_fill" transform="translate(580.311 4944.95)" fill="#FFFFFF"/>
</g>
<g id="Vector">
<use xlink:href="#path2_fill" transform="translate(580.611 4950.97)" fill="#FFFFFF"/>
</g>
<g id="Vector">
<use xlink:href="#path3_fill" transform="translate(586.627 4950.66)" fill="#FFFFFF"/>
</g>
</g>
</g>
</g>
</g>
<defs>
<path id="path0_fill" d="M 20.5484 0L 5 0C 2.23858 0 0 2.23858 0 5L 0 21C 0 23.7614 2.23858 26 5 26L 20.5484 26C 23.3098 26 25.5484 23.7614 25.5484 21L 25.5484 5C 25.5484 2.23858 23.3098 0 20.5484 0Z"/>
<path id="path1_fill" d="M 2.15316 4.30378e-07C 3.32331 0.000970301 4.28838 0.984533 4.28586 2.1813C 4.28306 3.43443 3.26119 4.37891 2.13875 4.3517C 1.00028 4.37514 -0.000224196 3.40744 4.45299e-08 2.17302C 4.45299e-08 0.975804 0.968833 -0.000912389 2.15316 4.30378e-07Z"/>
<path id="path2_fill" d="M 3.09621 12.0834L 0.589137 12.0834C 0.263763 12.0834 -2.01877e-07 11.815 -2.01877e-07 11.4839L -2.01877e-07 0.599551C -2.01877e-07 0.268425 0.263763 2.99463e-07 0.589137 2.99463e-07L 3.09621 2.99463e-07C 3.42158 2.99463e-07 3.68534 0.268425 3.68534 0.599551L 3.68534 11.4839C 3.68529 11.815 3.42158 12.0834 3.09621 12.0834Z"/>
<path id="path3_fill" d="M 11.5132 4.13165C 11.5132 1.84983 9.69556 -3.7607e-07 7.45332 -3.7607e-07L 6.81031 -3.7607e-07C 5.5836 -3.7607e-07 4.49984 0.622885 3.84797 1.57496C 3.77689 1.67873 3.71107 1.7865 3.65064 1.89775C 3.62973 1.89456 3.61734 1.8929 3.61706 1.89347L 3.61706 0.557448C 3.61706 0.420011 3.50758 0.308533 3.37247 0.308533L 0.244591 0.308533C 0.109542 0.308533 -3.69538e-07 0.419954 -3.69538e-07 0.557448L -3.69538e-07 12.1432C -3.69538e-07 12.2807 0.10943 12.3921 0.244479 12.3921L 3.44053 12.3929C 3.57563 12.393 3.68517 12.2815 3.68517 12.144L 3.68517 5.45061C 3.68517 4.29362 4.59195 3.33293 5.72879 3.31987C 6.30913 3.31319 6.83525 3.54984 7.21445 3.93596C 7.58865 4.31655 7.82001 4.84279 7.82001 5.4238L 7.82001 12.1449C 7.82001 12.2823 7.92949 12.3937 8.06449 12.3938L 11.2684 12.3946C 11.4035 12.3947 11.5131 12.2832 11.5131 12.1457L 11.5131 4.13165L 11.5132 4.13165Z"/>
</defs>
</svg>
