<svg width="119" height="77" viewBox="0 0 119 77" version="1.1" xmlns="http://www.w3.org/2000/svg" xmlns:xlink="http://www.w3.org/1999/xlink">
<title>ICO_Anatomy_Logo-Final</title>
<desc>Created using Figma</desc>
<g id="Canvas" transform="translate(653 483)">
<g id="ICO_Anatomy_Logo-Final">
<g id="g10">
<g id="path12">
<use xlink:href="#path0_fill" transform="matrix(1.25 0 0 -1.25 -653 -406.155)" fill="#5386E4"/>
</g>
<g id="g14">
<g id="g16">
<g id="g22">
<g id="path24">
<use xlink:href="#path1_fill" transform="matrix(1.25 0 0 -1.25 -646.187 -406)" fill="#5386E4"/>
</g>
</g>
<g id="g26">
<g id="path28">
<use xlink:href="#path2_fill" transform="matrix(1.25 0 0 -1.25 -634.431 -406.019)" fill="#5386E4"/>
</g>
</g>
<g id="g30">
<g id="path32">
<use xlink:href="#path3_fill" transform="matrix(1.25 0 0 -1.25 -622.136 -406.155)" fill="#FFFFFF"/>
</g>
</g>
<g id="g34">
<g id="path36">
<use xlink:href="#path4_fill" transform="matrix(1.25 0 0 -1.25 -608.334 -406.155)" fill="#FFFFFF"/>
</g>
</g>
<g id="g38">
<g id="path40">
<use xlink:href="#path5_fill" transform="matrix(1.25 0 0 -1.25 -594.264 -406.155)" fill="#FFFFFF"/>
</g>
</g>
<g id="g42">
<g id="path44">
<use xlink:href="#path6_fill" transform="matrix(1.25 0 0 -1.25 -582.296 -406.155)" fill="#FFFFFF"/>
</g>
</g>
<g id="g46">
<g id="path48">
<use xlink:href="#path7_fill" transform="matrix(1.25 0 0 -1.25 -571.023 -406.019)" fill="#FFFFFF"/>
</g>
</g>
<g id="g50">
<g id="path52">
<use xlink:href="#path8_fill" transform="matrix(1.25 0 0 -1.25 -558.052 -406.155)" fill="#FFFFFF"/>
</g>
</g>
<g id="g54">
<g id="path56">
<use xlink:href="#path9_fill" transform="matrix(1.25 0 0 -1.25 -541.665 -406.155)" fill="#FFFFFF"/>
</g>
</g>
<g id="g58">
<g id="path60">
<use xlink:href="#path10_fill" transform="matrix(1.25 0 0 -1.25 -614.646 -433.957)" fill="#3B5673"/>
</g>
</g>
<g id="g62">
<g id="path64">
<use xlink:href="#path11_fill" transform="matrix(1.25 0 0 -1.25 -614.646 -446.218)" fill="#5386E4"/>
</g>
</g>
<g id="g66">
<g id="path68">
<use xlink:href="#path12_fill" transform="matrix(1.25 0 0 -1.25 -614.646 -433.957)" fill="#456990"/>
</g>
</g>
</g>
</g>
</g>
</g>
</g>
<defs>
<path id="path0_fill" d="M -2.22943e-06 9.98923L 0.972713 9.98923L 0.972713 2.50765e-06L -2.22943e-06 2.50765e-06L -2.22943e-06 9.98923Z"/>
<path id="path1_fill" d="M 2.79577 0C 1.3588 0 7.10629e-08 0.760078 7.10629e-08 2.21824L 7.10629e-08 7.7864C 7.10629e-08 9.29115 1.34309 10.2684 2.84179 10.2684C 3.96901 10.2684 4.86465 9.81865 5.28216 9.32196L 4.74156 8.53107C 4.26232 9.05821 3.42878 9.30655 2.87248 9.30655C 2.06925 9.30655 1.03517 8.79519 1.03517 7.72477L 1.03517 2.35764C 1.03517 1.28758 2.27015 0.899475 2.94955 0.899475C 3.49051 0.899475 4.49464 1.14782 5.12728 1.6126L 5.46735 0.744671C 4.86465 0.325748 3.98435 0 2.79577 0Z"/>
<path id="path2_fill" d="M 4.86502 7.91075C 4.86502 8.98081 3.64429 9.33773 2.9806 9.33773C 2.30083 9.33773 1.03444 8.98081 1.03444 7.91075L 1.03444 2.37304C 1.03444 1.30299 2.30083 0.899474 2.9806 0.899474C 3.64429 0.899474 4.86502 1.30299 4.86502 2.37304L 4.86502 7.91075ZM 2.96489 -1.9591e-07C 1.51258 -1.9591e-07 -8.9177e-08 0.790892 -8.9177e-08 2.29527L -8.9177e-08 7.95697C -8.9177e-08 9.46172 1.51258 10.253 2.96489 10.253C 4.40149 10.253 5.8991 9.46172 5.8991 7.95697L 5.8991 2.29527C 5.8991 0.790892 4.40149 -1.9591e-07 2.96489 -1.9591e-07Z"/>
<path id="path3_fill" d="M 3.64465 8.76364L 3.38203 8.76364L 2.13171 4.03296L 4.89607 4.03296L 3.64465 8.76364ZM 5.94658 2.23897e-07L 5.14299 3.05572L 1.88406 3.05572L 1.0812 2.23897e-07L 1.14258e-07 2.23897e-07L 2.82682 9.9896L 4.27767 9.9896L 7.10448 2.23897e-07L 5.94658 2.23897e-07Z"/>
<path id="path4_fill" d="M 7.16585 0L 6.25487 0L 0.817838 8.46907C 0.817838 8.46907 1.00339 8.01934 1.00339 7.60078L 1.00339 0L -1.11471e-08 0L -1.11471e-08 9.98923L 1.00339 9.98923L 5.88449 2.32682C 6.10072 1.98567 6.1778 1.61333 6.1778 1.61333L 6.1778 9.98923L 7.16585 9.98923L 7.16585 0Z"/>
<path id="path5_fill" d="M 3.64502 8.76364L 3.38276 8.76364L 2.13134 4.03296L 4.89643 4.03296L 3.64502 8.76364ZM 5.94585 2.23897e-07L 5.14372 3.05572L 1.88442 3.05572L 1.08083 2.23897e-07L -3.34414e-08 2.23897e-07L 2.82645 9.9896L 4.2784 9.9896L 7.10521 2.23897e-07L 5.94585 2.23897e-07Z"/>
<path id="path6_fill" d="M 5.54478 9.0428L 3.38239 9.0428L 3.38239 3.41443e-07L 2.34722 3.41443e-07L 2.34722 9.0428L -1.11471e-07 9.0428L -1.11471e-07 10.0046L 5.69929 10.0046L 5.54478 9.0428Z"/>
<path id="path7_fill" d="M 4.86465 7.91075C 4.86465 8.98081 3.64502 9.33773 2.98096 9.33773C 2.30119 9.33773 1.03481 8.98081 1.03481 7.91075L 1.03481 2.37304C 1.03481 1.30299 2.30119 0.899474 2.98096 0.899474C 3.64502 0.899474 4.86465 1.30299 4.86465 2.37304L 4.86465 7.91075ZM 2.96562 -1.9591e-07C 1.51331 -1.9591e-07 5.85224e-08 0.790892 5.85224e-08 2.29527L 5.85224e-08 7.95697C 5.85224e-08 9.46172 1.51331 10.253 2.96562 10.253C 4.40149 10.253 5.89983 9.46172 5.89983 7.95697L 5.89983 2.29527C 5.89983 0.790892 4.40149 -1.9591e-07 2.96562 -1.9591e-07Z"/>
<path id="path8_fill" d="M 8.07756 0L 8.07756 6.73212C 8.07756 7.15068 8.21636 7.78713 8.21636 7.78713L 5.01953 0.0465878L 4.04609 0.0465878L 0.787155 7.78713C 0.787155 7.78713 0.910981 7.15068 0.910981 6.76293L 0.910981 0L 0.0153411 0L -1.17045e-07 9.98923L 0.926323 9.98923L 4.61773 1.41194L 8.16997 9.98923L 9.09666 9.98923L 9.09666 0L 8.07756 0Z"/>
<path id="path9_fill" d="M 3.56795 3.69144L 3.56795 1.00754e-07L 2.56455 1.00754e-07L 2.56455 3.69144L 1.28192e-07 9.98923L 1.0969 9.98923L 2.94991 5.11842C 3.04306 4.88585 3.07374 4.63787 3.07374 4.63787C 3.07374 4.63787 3.11976 4.93244 3.19757 5.11842L 5.06628 9.98923L 6.13214 9.98923L 3.56795 3.69144Z"/>
<path id="path10_fill" d="M 0 29.4266L 16.9163 39.2346L 33.8327 29.4266L 33.8327 9.80912L 16.9163 -8.50809e-07L 0 9.80912L 0 29.4266Z"/>
<path id="path11_fill" d="M 16.9163 29.4255L 16.9163 9.80801L -1.00324e-07 1.34338e-06L -1.00324e-07 19.6175L 16.9163 29.4255Z"/>
<path id="path12_fill" d="M 0 9.80912L 16.9163 19.6171L 33.8327 9.80912L 16.9163 8.39614e-08L 0 9.80912Z"/>
</defs>
</svg>
