<svg width="81" height="59" viewBox="0 0 81 59" version="1.1" xmlns="http://www.w3.org/2000/svg" xmlns:xlink="http://www.w3.org/1999/xlink">
<title>marketing</title>
<desc>Created using Figma</desc>
<g id="Canvas" transform="translate(417 -3930)">
<g id="marketing">
<g id="Group">
<g id="Group">
<g id="Vector">
<use xlink:href="#path0_fill" transform="translate(-417 3930)" fill="#5386E4"/>
</g>
</g>
</g>
<g id="Group">
<g id="Group">
<g id="Vector">
<use xlink:href="#path1_fill" transform="translate(-352.065 3952.86)" fill="#5386E4"/>
</g>
</g>
</g>
<g id="Group">
<g id="Group">
<g id="Vector">
<use xlink:href="#path2_fill" transform="translate(-343.948 3939.41)" fill="#5386E4"/>
</g>
</g>
</g>
<g id="Group">
<g id="Group">
<g id="Vector">
<use xlink:href="#path3_fill" transform="translate(-352.065 3941.72)" fill="#5386E4"/>
</g>
</g>
</g>
<g id="Group">
<g id="Group">
<g id="Vector">
<use xlink:href="#path4_fill" transform="translate(-343.952 3965.73)" fill="#5386E4"/>
</g>
</g>
</g>
<g id="Group">
<g id="Group">
<g id="Vector">
<use xlink:href="#path5_fill" transform="translate(-352.065 3962.27)" fill="#5386E4"/>
</g>
</g>
</g>
</g>
</g>
<defs>
<path id="path0_fill" d="M 56.7339 -4.51113e-07L 52.6753 -4.51113e-07C 50.765 -4.51113e-07 49.1657 1.3469 48.7868 3.13537C 45.6712 4.68482 30.3807 11.8813 10.2463 14.5155C 9.11566 14.6635 8.14477 15.2743 7.51702 16.1365L 3.9739 16.1365C 1.78263 16.1367 0 17.9086 0 20.0868L 0 28.1551C 0 30.3333 1.78263 32.1053 3.9739 32.1053L 7.51734 32.1053C 8.14493 32.9675 9.11598 33.5784 10.2465 33.7263C 10.4488 33.7528 10.6498 33.7807 10.8513 33.8082L 17.0826 56.1068C 17.5586 57.81 19.1331 58.9997 20.9116 58.9997L 28.3201 58.9997C 28.3215 58.9997 28.3228 59 28.3242 59C 28.326 59 28.3274 58.9997 28.3291 58.9997L 29.6776 58.9997C 30.378 58.9997 30.946 58.4353 30.946 57.739C 30.946 57.0426 30.3782 56.4782 29.6776 56.4782L 29.2889 56.4782L 23.6299 36.2287C 36.936 39.4516 46.4086 43.9239 48.787 45.1066C 49.1657 46.8951 50.7652 48.242 52.6755 48.242L 56.7339 48.242C 58.9251 48.242 60.7078 46.47 60.7078 44.2918L 60.7078 3.95012C 60.7078 1.77196 58.9251 -4.51113e-07 56.7339 -4.51113e-07ZM 6.76413 29.5838L 3.9739 29.5838C 3.18131 29.5838 2.53647 28.9428 2.53647 28.155L 2.53647 20.0866C 2.53647 19.2988 3.18131 18.6578 3.9739 18.6578L 6.76413 18.6578L 6.76413 29.5838ZM 26.6561 56.4782L 20.9116 56.4782C 20.2684 56.4782 19.699 56.048 19.5269 55.4319L 13.5968 34.2131C 16.0938 34.6107 18.505 35.0733 20.8157 35.5797L 26.6561 56.4782ZM 58.1711 44.2918C 58.1711 45.0797 57.5263 45.7207 56.7337 45.7207L 52.6753 45.7207C 51.8827 45.7207 51.2379 45.0797 51.2379 44.2918L 51.2379 44.2903C 51.2379 44.2874 51.2379 44.2846 51.2379 44.2816L 51.2379 14.7085C 51.2379 14.0123 50.6701 13.4478 49.9696 13.4478C 49.269 13.4478 48.7012 14.0122 48.7012 14.7085L 48.7012 42.2623C 43.7079 39.9053 29.151 33.6566 10.5773 31.2265C 9.84925 31.1314 9.30044 30.5217 9.30044 29.8085L 9.30044 18.4334C 9.30044 17.7203 9.84941 17.1107 10.5773 17.0154C 29.151 14.5855 43.7079 8.33662 48.7012 5.97982L 48.7012 9.32954C 48.7012 10.0257 49.269 10.5903 49.9696 10.5903C 50.6701 10.5903 51.2379 10.0259 51.2379 9.32954L 51.2379 3.95892C 51.2379 3.95735 51.2379 3.95578 51.2379 3.95421L 51.2379 3.95012C 51.2379 3.16226 51.8827 2.52129 52.6753 2.52129L 56.7337 2.52129C 57.5263 2.52129 58.1711 3.16226 58.1711 3.95012L 58.1711 44.2918Z"/>
<path id="path1_fill" d="M 14.7966 -1.91963e-08L 1.26832 -1.91963e-08C 0.56795 -1.91963e-08 1.58358e-06 0.564392 1.58358e-06 1.26072C 1.58358e-06 1.9569 0.567792 2.52145 1.26832 2.52145L 14.7966 2.52145C 15.4969 2.52145 16.0649 1.95705 16.0649 1.26072C 16.0649 0.564392 15.4971 -1.91963e-08 14.7966 -1.91963e-08Z"/>
<path id="path2_fill" d="M 3.78717 0.764324C 3.51126 0.124291 2.76565 -0.17198 2.12192 0.102274L 0.76897 0.67862C 0.125241 0.952874 -0.173128 1.69402 0.102936 2.3339C 0.309075 2.81196 0.777357 3.09816 1.26921 3.09816C 1.43596 3.09816 1.60539 3.0653 1.76818 2.99595L 3.12114 2.4196C 3.76486 2.14535 4.06308 1.40436 3.78717 0.764324Z"/>
<path id="path3_fill" d="M 6.4926 0.764301C 6.2167 0.124425 5.47109 -0.172001 4.82736 0.102254L 0.76897 1.83128C 0.125241 2.10554 -0.173128 2.84669 0.102936 3.48656C 0.309075 3.96446 0.777358 4.25083 1.26921 4.25083C 1.43596 4.25083 1.60539 4.21796 1.76818 4.14861L 5.82656 2.41958C 6.47029 2.14532 6.76867 1.40418 6.4926 0.764301Z"/>
<path id="path4_fill" d="M 3.12486 0.680238L 1.76812 0.102318C 1.12439 -0.172094 0.378776 0.12449 0.10287 0.764366C -0.173036 1.40424 0.125175 2.14539 0.768904 2.41964L 2.12565 2.99756C 2.28844 3.06691 2.45788 3.09978 2.62463 3.09978C 3.1168 3.09978 3.58476 2.81342 3.7909 2.33536C 4.06696 1.69564 3.76891 0.954493 3.12486 0.680238Z"/>
<path id="path5_fill" d="M 5.8246 1.83028L 1.76812 0.102186C 1.12439 -0.171912 0.378617 0.124357 0.102869 0.764233C -0.173037 1.40427 0.125174 2.14526 0.768903 2.41951L 4.82539 4.1476C 4.98818 4.21695 5.15762 4.24982 5.32436 4.24982C 5.81653 4.24982 6.2845 3.96346 6.49063 3.48555C 6.7667 2.84568 6.46833 2.10453 5.8246 1.83028Z"/>
</defs>
</svg>
