<svg width="55" height="55" viewBox="0 0 55 55" version="1.1" xmlns="http://www.w3.org/2000/svg" xmlns:xlink="http://www.w3.org/1999/xlink">
<title>noun_1316220_cc</title>
<desc>Created using Figma</desc>
<g id="Canvas" transform="translate(457 -2193)">
<g id="noun_1316220_cc">
<g id="Vector">
<use xlink:href="#path0_fill" transform="translate(-457 2193)" fill="#5386E4"/>
</g>
</g>
</g>
<defs>
<path id="path0_fill" d="M 54.7027 52.6885L 52.6647 54.7265C 52.4715 54.9065 52.216 55.0045 51.952 54.9998C 51.688 54.9952 51.4362 54.8882 51.2495 54.7015C 51.0628 54.5148 50.9558 54.263 50.9512 53.999C 50.9465 53.735 51.0445 53.4795 51.2245 53.2863L 51.5234 52.9874L 5.74903 52.9874C 4.75862 52.9856 3.8093 52.5914 3.10897 51.891C 2.40865 51.1907 2.01442 50.2414 2.01262 49.251L 2.01262 3.4766L 1.71371 3.77551C 1.52054 3.95551 1.26504 4.0535 1.00104 4.04884C 0.737048 4.04419 0.485166 3.93724 0.298464 3.75054C 0.111762 3.56384 0.00481673 3.31195 0.000158834 3.04796C -0.00449906 2.78396 0.0934939 2.52847 0.273494 2.33529L 2.31153 0.297253C 2.40654 0.201197 2.51969 0.124992 2.64441 0.0730688L 2.64441 0.0730688C 2.88398 -0.0243566 3.15213 -0.0243566 3.39169 0.0730688L 3.39169 0.0730688C 3.51642 0.124992 3.62957 0.201197 3.72457 0.297253L 5.76261 2.33529C 5.86273 2.42858 5.94303 2.54108 5.99873 2.66608C 6.05442 2.79108 6.08437 2.92602 6.08679 3.06284C 6.0892 3.19967 6.06403 3.33558 6.01278 3.46246C 5.96153 3.58935 5.88525 3.70461 5.78848 3.80138C 5.69172 3.89814 5.57645 3.97442 5.44957 4.02567C 5.32268 4.07693 5.18677 4.10209 5.04995 4.09968C 4.91312 4.09727 4.77819 4.06732 4.65319 4.01162C 4.52819 3.95593 4.41569 3.87563 4.3224 3.77551L 4.02349 3.4766L 4.02349 49.251C 4.02346 49.4763 4.06827 49.6994 4.15532 49.9072C 4.24236 50.1151 4.3699 50.3035 4.5305 50.4616C 4.69109 50.6197 4.88154 50.7442 5.09074 50.8279C 5.29994 50.9117 5.52372 50.9529 5.74903 50.9493L 51.5234 50.9493L 51.2245 50.6504C 51.0445 50.4573 50.9465 50.2018 50.9512 49.9378C 50.9558 49.6738 51.0628 49.4219 51.2495 49.2352C 51.4362 49.0485 51.688 48.9415 51.952 48.9369C 52.216 48.9322 52.4715 49.0302 52.6647 49.2102L 54.7027 51.2483C 54.7988 51.3433 54.875 51.4564 54.9269 51.5811L 54.9269 51.5811C 55.0244 51.8207 55.0244 52.0888 54.9269 52.3284L 54.9269 52.3284C 54.8783 52.4628 54.8019 52.5855 54.7027 52.6885L 54.7027 52.6885ZM 9.03027 42.573C 9.03027 41.9012 9.22949 41.2445 9.60272 40.6859C 9.97596 40.1273 10.5065 39.6919 11.1271 39.4348C 11.7478 39.1777 12.4308 39.1105 13.0897 39.2415C 13.7486 39.3726 14.3538 39.6961 14.8289 40.1711C 15.3039 40.6462 15.6274 41.2514 15.7585 41.9103C 15.8895 42.5692 15.8223 43.2522 15.5652 43.8729C 15.3081 44.4935 14.8727 45.024 14.3141 45.3973C 13.7555 45.7705 13.0988 45.9697 12.427 45.9697C 11.5261 45.9697 10.6622 45.6119 10.0252 44.9748C 9.38814 44.3378 9.03027 43.4739 9.03027 42.573ZM 11.0683 42.573C 11.0683 42.8417 11.148 43.1044 11.2973 43.3278C 11.4466 43.5513 11.6588 43.7254 11.9071 43.8283C 12.1553 43.9311 12.4285 43.958 12.6921 43.9056C 12.9556 43.8532 13.1977 43.7238 13.3877 43.5337C 13.5778 43.3437 13.7072 43.1016 13.7596 42.8381C 13.812 42.5745 13.7851 42.3013 13.6823 42.053C 13.5794 41.8048 13.4053 41.5926 13.1819 41.4433C 12.9584 41.294 12.6957 41.2143 12.427 41.2143C 12.0667 41.2143 11.7211 41.3574 11.4663 41.6123C 11.2115 41.8671 11.0683 42.2126 11.0683 42.573ZM 21.9379 25.5893C 21.9379 24.9175 22.1371 24.2608 22.5103 23.7022C 22.8836 23.1436 23.414 22.7082 24.0347 22.4512C 24.6554 22.1941 25.3384 22.1268 25.9973 22.2579C 26.6562 22.3889 27.2614 22.7124 27.7364 23.1875C 28.2115 23.6625 28.535 24.2678 28.6661 24.9267C 28.7971 25.5856 28.7299 26.2685 28.4728 26.8892C 28.2157 27.5099 27.7803 28.0404 27.2217 28.4136C 26.6631 28.7868 26.0064 28.9861 25.3346 28.9861C 24.4337 28.9861 23.5698 28.6282 22.9327 27.9912C 22.2957 27.3542 21.9379 26.4902 21.9379 25.5893ZM 23.9759 25.5893C 23.9759 25.8581 24.0556 26.1207 24.2049 26.3442C 24.3542 26.5676 24.5664 26.7418 24.8146 26.8446C 25.0629 26.9474 25.3361 26.9743 25.5997 26.9219C 25.8632 26.8695 26.1053 26.7401 26.2953 26.5501C 26.4853 26.3601 26.6148 26.118 26.6672 25.8544C 26.7196 25.5908 26.6927 25.3176 26.5899 25.0694C 26.487 24.8211 26.3129 24.6089 26.0894 24.4596C 25.866 24.3103 25.6033 24.2306 25.3346 24.2306C 24.9742 24.2306 24.6287 24.3738 24.3739 24.6286C 24.119 24.8834 23.9759 25.229 23.9759 25.5893ZM 33.4868 31.7034C 33.4868 31.0316 33.686 30.3749 34.0592 29.8163C 34.4324 29.2577 34.9629 28.8224 35.5836 28.5653C 36.2043 28.3082 36.8873 28.2409 37.5462 28.372C 38.2051 28.503 38.8103 28.8266 39.2853 29.3016C 39.7604 29.7766 40.0839 30.3819 40.2149 31.0408C 40.346 31.6997 40.2787 32.3826 40.0217 33.0033C 39.7646 33.624 39.3292 34.1545 38.7706 34.5277C 38.212 34.901 37.5553 35.1002 36.8835 35.1002C 35.9826 35.1002 35.1186 34.7423 34.4816 34.1053C 33.8446 33.4683 33.4868 32.6043 33.4868 31.7034L 33.4868 31.7034ZM 35.5248 31.7034C 35.5248 31.9722 35.6045 32.2349 35.7538 32.4583C 35.9031 32.6817 36.1153 32.8559 36.3635 32.9587C 36.6118 33.0616 36.885 33.0885 37.1486 33.036C 37.4121 32.9836 37.6542 32.8542 37.8442 32.6642C 38.0342 32.4742 38.1636 32.2321 38.2161 31.9685C 38.2685 31.705 38.2416 31.4318 38.1388 31.1835C 38.0359 30.9352 37.8618 30.723 37.6383 30.5737C 37.4149 30.4244 37.1522 30.3448 36.8835 30.3448C 36.5231 30.3448 36.1775 30.4879 35.9227 30.7427C 35.6679 30.9975 35.5248 31.3431 35.5248 31.7034ZM 45.715 12.6817C 45.715 12.0099 45.9142 11.3532 46.2874 10.7946C 46.6607 10.236 47.1912 9.80066 47.8118 9.54357C 48.4325 9.28648 49.1155 9.21921 49.7744 9.35028C 50.4333 9.48134 51.0385 9.80485 51.5136 10.2799C 51.9886 10.7549 52.3121 11.3602 52.4432 12.0191C 52.5743 12.678 52.507 13.3609 52.2499 13.9816C 51.9928 14.6023 51.5574 15.1328 50.9988 15.506C 50.4403 15.8793 49.7835 16.0785 49.1117 16.0785C 48.2109 16.0785 47.3469 15.7206 46.7099 15.0836C 46.0729 14.4466 45.715 13.5826 45.715 12.6817ZM 47.753 12.6817C 47.753 12.9505 47.8327 13.2132 47.982 13.4366C 48.1313 13.66 48.3435 13.8342 48.5918 13.937C 48.84 14.0398 49.1132 14.0668 49.3768 14.0143C 49.6404 13.9619 49.8825 13.8325 50.0725 13.6425C 50.2625 13.4525 50.3919 13.2104 50.4443 12.9468C 50.4967 12.6833 50.4698 12.4101 50.367 12.1618C 50.2642 11.9135 50.09 11.7013 49.8666 11.552C 49.6431 11.4027 49.3804 11.323 49.1117 11.323C 48.7514 11.323 48.4058 11.4662 48.151 11.721C 47.8962 11.9758 47.753 12.3214 47.753 12.6817ZM 39.431 27.7361C 39.6582 27.8816 39.9337 27.9312 40.1973 27.8739C 40.461 27.8166 40.6911 27.6571 40.8373 27.4304L 47.0533 17.7633C 47.2019 17.5362 47.2543 17.2595 47.1989 16.9938C 47.1435 16.7282 46.9848 16.4955 46.7578 16.3468C 46.5308 16.1982 46.254 16.1458 45.9884 16.2012C 45.7227 16.2566 45.49 16.4153 45.3413 16.6423L 39.1253 26.3298C 38.9798 26.5569 38.9302 26.8325 38.9875 27.0961C 39.0448 27.3597 39.2043 27.5899 39.431 27.7361L 39.431 27.7361ZM 29.3495 28.8706L 31.5642 30.0323C 31.8015 30.1445 32.0729 30.1609 32.3219 30.078C 32.571 29.995 32.7784 29.8192 32.901 29.5871C 33.0236 29.3551 33.052 29.0846 32.9801 28.8322C 32.9082 28.5797 32.7417 28.3647 32.5153 28.232L 30.3142 27.0635C 30.1955 27.0002 30.0656 26.9608 29.9317 26.9477C 29.7979 26.9346 29.6627 26.948 29.534 26.9871C 29.4053 27.0262 29.2856 27.0903 29.1817 27.1757C 29.0778 27.261 28.9917 27.3661 28.9283 27.4847C 28.865 27.6034 28.8256 27.7333 28.8125 27.8672C 28.7994 28.001 28.8128 28.1362 28.8519 28.2649C 28.891 28.3936 28.9551 28.5133 29.0405 28.6172C 29.1259 28.7211 29.2309 28.8072 29.3495 28.8706L 29.3495 28.8706ZM 15.124 39.0608C 15.3394 39.2237 15.6106 39.2944 15.8781 39.2575C 16.1456 39.2205 16.3875 39.0789 16.5506 38.8638L 22.7735 30.6776C 22.8546 30.571 22.914 30.4495 22.9482 30.3199C 22.9824 30.1903 22.9908 30.0553 22.9728 29.9225C 22.9548 29.7897 22.9109 29.6618 22.8435 29.546C 22.776 29.4302 22.6865 29.3288 22.5798 29.2476C 22.4732 29.1664 22.3517 29.107 22.2221 29.0728C 22.0926 29.0386 21.9575 29.0303 21.8247 29.0482C 21.6919 29.0662 21.564 29.1102 21.4482 29.1776C 21.3324 29.245 21.231 29.3346 21.1498 29.4412L 14.927 37.6002C 14.841 37.7078 14.7777 37.8317 14.7409 37.9645C 14.7042 38.0972 14.6947 38.2361 14.7131 38.3726C 14.7316 38.5091 14.7775 38.6405 14.8481 38.7588C 14.9187 38.8771 15.0126 38.9798 15.124 39.0608Z"/>
</defs>
</svg>
