<svg width="62" height="61" viewBox="0 0 62 61" version="1.1" xmlns="http://www.w3.org/2000/svg" xmlns:xlink="http://www.w3.org/1999/xlink">
<title>noun_563273_cc</title>
<desc>Created using Figma</desc>
<g id="Canvas" transform="translate(198 -2186)">
<g id="noun_563273_cc">
<g id="Vector">
<use xlink:href="#path0_fill" transform="translate(-198 2186)" fill="#5386E4"/>
</g>
</g>
</g>
<defs>
<path id="path0_fill" d="M 12.2813 61C 11.5986 61 11.0459 60.4442 11.0459 59.7593L 11.0459 56.0507C 9.09888 55.5828 7.56345 54.0387 7.10177 52.0827L 1.2354 52.0827C 0.552752 52.0827 6.73238e-08 51.5268 6.73238e-08 50.842C 6.73238e-08 50.1571 0.552752 49.6013 1.2354 49.6013L 7.10389 49.6013C 7.56487 47.6665 9.07629 46.1366 10.9964 45.6559C 10.928 38.9065 14.188 31.6056 19.8694 25.8999C 22.9184 22.8372 26.4827 20.4274 30.2256 18.8904L 29.1222 15.1952C 29.0869 15.0783 29.07 14.9591 29.07 14.84C 29.07 14.5281 29.1871 14.2218 29.4067 13.9879C 29.7095 13.666 30.162 13.5299 30.5898 13.6313L 39.0266 15.6355C 39.0209 15.5157 39.0181 15.3945 39.0181 15.2725C 39.0181 11.386 41.8694 8.15522 45.5812 7.57954L 45.5812 1.24069C 45.5812 0.555828 46.134 2.97493e-08 46.8166 2.97493e-08C 47.4993 2.97493e-08 48.052 0.555828 48.052 1.24069L 48.052 7.59514C 51.3085 8.14175 53.8845 10.7351 54.4189 14.0091L 60.7646 14.0091C 61.4472 14.0091 62 14.565 62 15.2498C 62 15.9347 61.4472 16.4905 60.7646 16.4905L 54.426 16.4905C 53.8421 20.2062 50.6308 23.0576 46.7693 23.0576C 43.8368 23.0576 41.2792 21.4136 39.9619 18.9953L 34.0659 25.2767C 33.7631 25.5993 33.3113 25.7347 32.8827 25.6333C 32.4535 25.5312 32.1097 25.2065 31.9841 24.7818L 30.9386 21.2796C 27.5783 22.6954 24.374 24.8839 21.6159 27.6546C 16.3969 32.8959 13.4016 39.5411 13.4658 45.6304C 15.8364 46.1713 17.6118 48.3053 17.6118 50.8476C 17.6118 53.3723 15.8618 55.4942 13.5152 56.0536L 13.5152 59.76C 13.5167 60.4442 12.9639 61 12.2813 61ZM 12.2862 47.9785C 10.7112 47.9785 9.42926 49.2652 9.42926 50.8469C 9.42926 52.4286 10.7105 53.7154 12.2862 53.7154C 13.8605 53.7154 15.1424 52.4286 15.1424 50.8469C 15.1424 49.2652 13.8605 47.9785 12.2862 47.9785ZM 32.1041 16.5408L 33.7369 22.0098L 37.6366 17.8546L 32.1041 16.5408ZM 46.77 9.96946C 43.858 9.96946 41.4896 12.348 41.4896 15.2725C 41.4896 18.197 43.858 20.5756 46.77 20.5756C 49.6813 20.5756 52.0498 18.197 52.0498 15.2725C 52.0498 12.348 49.6813 9.96946 46.77 9.96946ZM 38.9673 48.5095C 38.651 48.5095 38.3347 48.3882 38.094 48.1458L 32.8369 42.8661L 27.5797 48.1458C 27.0968 48.6307 26.3154 48.6307 25.8325 48.1458C 25.3496 47.6615 25.3496 46.8753 25.8325 46.3911L 31.0889 41.1114L 25.7026 35.702C 25.2198 35.2178 25.2198 34.4316 25.7026 33.9473C 26.1855 33.4624 26.967 33.4624 27.4498 33.9473L 32.8369 39.3567L 38.2232 33.9473C 38.7061 33.4624 39.4875 33.4624 39.9704 33.9473C 40.4533 34.4316 40.4533 35.2178 39.9704 35.702L 34.5841 41.1114L 39.8412 46.3911C 40.3241 46.8753 40.3241 47.6615 39.8412 48.1458C 39.5991 48.3882 39.2835 48.5095 38.9673 48.5095ZM 15.0556 22.8152C 14.7393 22.8152 14.4231 22.6939 14.1824 22.4515L 8.92451 17.1718L 3.66737 22.4515C 3.1845 22.9364 2.40302 22.9364 1.92016 22.4515C 1.4373 21.9673 1.4373 21.181 1.92016 20.6968L 7.17731 15.4164L 1.79097 10.007C 1.30811 9.52281 1.30811 8.73657 1.79097 8.25235C 2.27384 7.76741 3.05531 7.76741 3.53818 8.25235L 8.92451 13.6617L 14.3115 8.25235C 14.7944 7.76741 15.5759 7.76741 16.0588 8.25235C 16.5416 8.73657 16.5416 9.52281 16.0588 10.007L 10.6724 15.4164L 15.9296 20.6968C 16.4124 21.181 16.4124 21.9673 15.9296 22.4515C 15.6874 22.6939 15.3719 22.8152 15.0556 22.8152Z"/>
</defs>
</svg>
