<svg width="72" height="63" viewBox="0 0 72 63" version="1.1" xmlns="http://www.w3.org/2000/svg" xmlns:xlink="http://www.w3.org/1999/xlink">
<title>noun_68254_cc</title>
<desc>Created using Figma</desc>
<g id="Canvas" transform="translate(-77 -2185)">
<g id="noun_68254_cc">
<g id="Vector">
<use xlink:href="#path0_fill" transform="translate(94.7435 2223.42)" fill="#5386E4"/>
</g>
<g id="Vector">
<use xlink:href="#path1_fill" transform="translate(77 2205.4)" fill="#5386E4"/>
</g>
<g id="Vector">
<use xlink:href="#path2_fill" transform="translate(116.662 2185)" fill="#5386E4"/>
</g>
<g id="Vector">
<use xlink:href="#path3_fill" transform="translate(127.809 2185)" fill="#5386E4"/>
</g>
</g>
</g>
<defs>
<path id="path0_fill" d="M 5.74665 7.5801C 5.39204 7.5801 5.03481 7.43363 4.77739 7.14868L 0.343468 2.22735C -0.145104 1.68675 -0.10833 0.842555 0.427523 0.349889C 0.963376 -0.142777 1.79605 -0.113483 2.28462 0.427118L 6.71854 5.34845C 7.20711 5.88906 7.17034 6.73591 6.63449 7.23123C 6.38232 7.47091 6.06186 7.5801 5.74665 7.5801L 5.74665 7.5801Z"/>
<path id="path1_fill" d="M 20.3696 42.6027C 10.8135 42.6027 2.46053 36.8771 0.0544447 28.6749C -0.0952789 28.1716 0.0702052 27.6203 0.472095 27.2714C 0.876611 26.9332 1.44136 26.8773 1.90629 27.1037C 3.5979 27.9718 5.39196 28.4086 7.23593 28.4086C 12.8335 28.4086 17.425 24.6164 17.7271 19.8575L 9.01685 10.1932C 8.74367 9.88965 8.62547 9.47688 8.69114 9.07209C 8.75943 8.66731 9.00634 8.31845 9.36358 8.12404C 12.6654 6.31849 16.4715 5.36512 20.3696 5.36512C 25.187 5.36512 29.8573 6.87507 33.5978 9.57807C 34.026 6.79784 35.8909 4.47299 38.5912 3.477L 50.0333 0.0549727C 50.5297 -0.0914955 51.055 0.0602999 51.3939 0.44378C 51.7327 0.827261 51.8247 1.37053 51.6303 1.84189L 39.1455 32.3153C 39.0903 32.4298 39.0404 32.539 38.9642 32.6322C 35.3078 38.7892 28.2077 42.6027 20.3696 42.6027L 20.3696 42.6027ZM 3.6662 30.6083C 6.61076 36.2193 13.083 39.9396 20.3696 39.9396C 27.3462 39.9396 33.6346 36.5575 36.7866 31.1169L 48.1473 3.38912L 39.4107 5.99626C 37.4512 6.72594 36.13 8.62204 36.13 10.8057C 36.13 11.2851 36.2219 11.6979 36.369 12.2065C 36.5371 12.7844 36.2981 13.4155 35.7859 13.7165C 35.2736 14.028 34.6196 13.9508 34.1914 13.5354C 30.6559 10.0361 25.6178 8.02551 20.3696 8.02551C 17.4959 8.02551 14.6827 8.60606 12.1427 9.71389L 20.0255 18.4647C 20.2461 18.7097 20.3696 19.0266 20.3696 19.3595C 20.3696 25.8201 14.4778 31.0716 7.23593 31.0716C 6.02238 31.0716 4.82984 30.9145 3.6662 30.6083L 3.6662 30.6083Z"/>
<path id="path2_fill" d="M 19.885 32.7903C 19.5462 32.7903 19.2126 32.6598 18.9551 32.4014L 0.38416 13.5736C -0.128052 13.0517 -0.128052 12.2101 0.38416 11.6882L 11.5268 0.39147C 12.0337 -0.13049 12.8716 -0.13049 13.3838 0.39147L 31.9496 19.2193C 32.2018 19.4696 32.3305 19.8078 32.3305 20.162C 32.3305 20.5162 32.1912 20.8544 31.9496 21.1047L 20.8122 32.4014C 20.5575 32.6651 20.2186 32.7903 19.885 32.7903L 19.885 32.7903ZM 3.17112 12.6362L 19.885 29.5813L 29.1705 20.1674L 12.4566 3.21964L 3.17112 12.6362Z"/>
<path id="path3_fill" d="M 19.881 21.4972C 19.7786 21.4972 19.6709 21.4839 19.5632 21.4573L 4.70638 17.6917C 4.23357 17.5719 3.87108 17.199 3.75288 16.7197L 0.0386797 1.65476C -0.134685 0.941056 0.290848 0.219367 0.992185 0.0409424C 1.68564 -0.140146 2.40274 0.296596 2.57873 1.01296L 6.1038 15.3003L 20.1962 18.8714C 20.9002 19.0499 21.331 19.7742 21.1497 20.4853C 21.0105 21.0924 20.4773 21.4972 19.881 21.4972L 19.881 21.4972Z"/>
</defs>
</svg>
