<svg width="64" height="62" viewBox="0 0 64 62" version="1.1" xmlns="http://www.w3.org/2000/svg" xmlns:xlink="http://www.w3.org/1999/xlink">
<title>Group</title>
<desc>Created using Figma</desc>
<g id="Canvas" transform="translate(-329 -2186)">
<g id="Group">
<g id="Vector">
<use xlink:href="#path0_fill" transform="translate(329 2186)" fill="#5386E4"/>
</g>
<g id="Vector">
<use xlink:href="#path1_fill" transform="translate(334.74 2199.65)" fill="#5386E4"/>
</g>
</g>
</g>
<defs>
<path id="path0_fill" fill-rule="evenodd" d="M 21.086 -1.92613e-05C 9.40396 -1.92613e-05 -8.37519e-08 9.37165 -8.37519e-08 21.6267C -8.37519e-08 33.209 9.33933 43.2536 21.086 43.2536C 27.2608 43.2536 32.6865 40.7751 36.5824 36.8556L 61.5085 61.5687C 61.6435 61.705 61.8046 61.8133 61.9822 61.8873C 62.1599 61.9614 62.3507 61.9996 62.5434 62C 62.7361 62.0003 62.927 61.9626 63.1049 61.8892C 63.2828 61.8157 63.4442 61.708 63.5797 61.5721C 63.7153 61.4362 63.8222 61.275 63.8943 61.0978C 63.9664 60.9206 64.0023 60.7309 63.9999 60.5399C 63.9974 60.3488 63.9567 60.1602 63.8801 59.9849C 63.8034 59.8095 63.6924 59.651 63.5534 59.5186L 38.4684 34.6479C 41.2587 30.9752 42.8991 26.4428 42.8991 21.6267C 42.8991 9.37165 33.4467 -1.92613e-05 21.086 -1.92613e-05ZM 21.086 2.88355C 31.9927 2.88355 39.9907 10.8133 39.9907 21.6267C 39.9907 31.6712 31.9321 40.37 21.086 40.37C 11.0196 40.37 2.90842 31.6712 2.90842 21.6267C 2.90842 10.8133 10.955 2.88355 21.086 2.88355Z"/>
<path id="path1_fill" fill-rule="evenodd" d="M 16.0279 -1.92613e-05C 15.9745 0.00456633 15.9214 0.0121111 15.8688 0.0225086C 15.7265 0.0471668 15.5886 0.0927231 15.4598 0.157676C 15.4209 0.178469 15.383 0.201 15.3462 0.225216C 15.3386 0.225157 15.3311 0.225157 15.3235 0.225216C 15.0478 0.400055 14.8397 0.661981 14.7327 0.968636C 14.706 1.02714 14.6832 1.08735 14.6646 1.14886L 11.0972 10.2275L 8.73411 3.1989C 8.64492 2.92734 8.4764 2.68817 8.24991 2.51171C 8.02343 2.33525 7.74918 2.22943 7.46197 2.20771C 7.17475 2.18599 6.8875 2.24933 6.63664 2.3897C 6.38578 2.53006 6.18262 2.74114 6.05292 2.99614L 3.53078 7.97481L 1.53124 7.97481C 1.48582 7.97269 1.44033 7.97269 1.39491 7.97481C 1.20328 7.98276 1.01513 8.02816 0.841269 8.10843C 0.667403 8.1887 0.511248 8.30224 0.381776 8.44252C 0.252304 8.58281 0.152067 8.74709 0.0868233 8.9259C 0.0215799 9.10472 -0.00738341 9.29454 0.00159706 9.48448C 0.0105775 9.67443 0.0573251 9.86074 0.139154 10.0327C 0.220982 10.2047 0.336279 10.359 0.478419 10.4866C 0.62056 10.6143 0.786743 10.7128 0.96742 10.7766C 1.1481 10.8404 1.33971 10.8682 1.53124 10.8583L 3.84888 10.8583C 4.13253 10.9651 4.44276 10.9813 4.73612 10.9045C 5.02948 10.8278 5.29129 10.662 5.48487 10.4303C 5.51649 10.4017 5.54681 10.3716 5.57576 10.3402C 5.57581 10.3328 5.57581 10.3253 5.57576 10.3179C 5.62802 10.2471 5.67365 10.1717 5.71209 10.0926C 5.71974 10.0852 5.72732 10.0778 5.73481 10.0703C 5.73487 10.0628 5.73487 10.0553 5.73481 10.0479L 5.80298 9.93522C 5.82036 9.89093 5.83553 9.84582 5.84842 9.80005L 7.07541 7.36708L 9.62027 14.9139C 9.7164 15.1926 9.8963 15.4354 10.1358 15.6097C 10.3753 15.784 10.6628 15.8814 10.9598 15.8887C 11.2568 15.8961 11.5489 15.8131 11.7969 15.651C 12.0449 15.4888 12.2368 15.2552 12.3469 14.9817L 15.9824 5.72272L 19.0726 14.9141C 19.1663 15.1937 19.3442 15.4382 19.5822 15.6146C 19.8203 15.791 20.1072 15.8909 20.4043 15.9007C 20.7014 15.9105 20.9943 15.8298 21.2437 15.6695C 21.4931 15.5092 21.687 15.277 21.7993 15.0042L 24.7531 7.66012L 25.4575 9.50736C 25.481 9.87378 25.6445 10.2176 25.9147 10.4687C 26.1849 10.7198 26.5414 10.8594 26.9117 10.859C 26.9269 10.8593 26.942 10.8593 26.9572 10.859C 26.9647 10.8591 26.9723 10.8591 26.9799 10.859L 29.8883 10.859C 30.0799 10.8601 30.2699 10.8236 30.4472 10.7516C 30.6246 10.6796 30.7858 10.5736 30.9217 10.4396C 31.0576 10.3056 31.1654 10.1463 31.239 9.97086C 31.3126 9.79542 31.3505 9.6073 31.3505 9.41729C 31.3505 9.22729 31.3126 9.03917 31.239 8.86373C 31.1654 8.68829 31.0576 8.52899 30.9217 8.395C 30.7858 8.26102 30.6246 8.15499 30.4472 8.083C 30.2699 8.01101 30.0799 7.97447 29.8883 7.97551L 28.0024 7.97551L 26.1619 3.13202C 26.0568 2.86246 25.8725 2.63045 25.6328 2.46604C 25.3931 2.30163 25.1091 2.21243 24.8176 2.21C 24.5262 2.20758 24.2407 2.29204 23.9983 2.45244C 23.7558 2.61284 23.5676 2.84177 23.458 3.10953L 20.5723 10.2734L 17.5048 1.19466L 17.5048 1.14961C 17.4822 1.06443 17.4518 0.981476 17.4139 0.9018C 17.3406 0.724733 17.2325 0.563911 17.0958 0.428714C 17.0397 0.371243 16.9789 0.318496 16.914 0.271019C 16.899 0.26326 16.8839 0.25577 16.8686 0.248535C 16.861 0.248477 16.8534 0.248477 16.8459 0.248535C 16.8309 0.240776 16.8157 0.233286 16.8004 0.226052C 16.7354 0.183121 16.667 0.145453 16.5959 0.113412C 16.5513 0.0961751 16.5058 0.0811382 16.4596 0.0683564C 16.3704 0.044788 16.2791 0.0297012 16.1869 0.0233006C 16.1794 0.0232419 16.1718 0.0232419 16.1642 0.0233006C 16.1192 0.0136653 16.0737 0.00612354 16.0279 0.000772734L 16.0279 -1.92613e-05Z"/>
</defs>
</svg>
