<svg width="36" height="36" viewBox="0 0 36 36" version="1.1" xmlns="http://www.w3.org/2000/svg" xmlns:xlink="http://www.w3.org/1999/xlink">
<title>telegram</title>
<desc>Created using Figma</desc>
<g id="Canvas" transform="translate(140 -1319)">
<g id="telegram">
<g id="Group">
<g id="Vector">
<use xlink:href="#path0_fill" transform="translate(-140 1319)" fill="#61A8DE"/>
</g>
<g id="Vector">
<use xlink:href="#path1_fill" transform="translate(-136.286 1326.86)" fill="#FFFFFF"/>
</g>
</g>
</g>
</g>
<defs>
<path id="path0_fill" d="M 31 0L 5 0C 2.23858 0 0 2.23858 0 5L 0 31C 0 33.7614 2.23858 36 5 36L 31 36C 33.7614 36 36 33.7614 36 31L 36 5C 36 2.23858 33.7614 0 31 0Z"/>
<path id="path1_fill" d="M 24.6328 0.086567L 0.559145 9.46781C -0.220604 9.7717 -0.173366 10.8907 0.629292 11.1276L 6.74666 12.9341L 9.02967 20.1783C 9.26815 20.935 10.2271 21.1644 10.7822 20.5976L 13.945 17.3682L 20.1508 21.9233C 20.9102 22.4808 21.9918 22.0666 22.1846 21.1445L 26.2947 1.494C 26.496 0.531461 25.549 -0.270486 24.6328 0.086567ZM 21.6146 4.44751L 10.4325 14.3358C 10.3211 14.4344 10.2501 14.5708 10.2335 14.7187L 9.80302 18.5458C 9.78896 18.6706 9.6143 18.6871 9.57702 18.5672L 7.80574 12.8597C 7.72461 12.5983 7.83038 12.3152 8.06286 12.1711L 21.2677 3.98129C 21.5714 3.79281 21.8823 4.21084 21.6146 4.44751Z"/>
</defs>
</svg>
