<svg width="27" height="26" viewBox="0 0 27 26" version="1.1" xmlns="http://www.w3.org/2000/svg" xmlns:xlink="http://www.w3.org/1999/xlink">
<title>telegram</title>
<desc>Created using Figma</desc>
<g id="Canvas" transform="translate(-505 -4941)">
<g id="telegram">
<g id="Group">
<g id="Vector">
<use xlink:href="#path0_fill" transform="translate(505.484 4941)" fill="#61A8DE"/>
</g>
<g id="Vector">
<use xlink:href="#path1_fill" transform="translate(508.119 4946.68)" fill="#FFFFFF"/>
</g>
</g>
</g>
</g>
<defs>
<path id="path0_fill" d="M 20.5484 0L 5 0C 2.23858 0 0 2.23858 0 5L 0 21C 0 23.7614 2.23858 26 5 26L 20.5484 26C 23.3098 26 25.5484 23.7614 25.5484 21L 25.5484 5C 25.5484 2.23858 23.3098 0 20.5484 0Z"/>
<path id="path1_fill" d="M 17.4813 0.0625206L 0.396813 6.83786C -0.156558 7.05734 -0.123034 7.86547 0.446594 8.03662L 4.78795 9.34127L 6.40815 14.5732C 6.5774 15.1197 7.25791 15.2854 7.65185 14.876L 9.89644 12.5437L 14.3005 15.8335C 14.8395 16.2361 15.6071 15.937 15.7439 15.2711L 18.6608 1.079C 18.8036 0.383833 18.1316 -0.195351 17.4813 0.0625206ZM 15.3394 3.21209L 7.40372 10.3536C 7.32462 10.4248 7.27428 10.5234 7.26251 10.6302L 6.95698 13.3942C 6.947 13.4843 6.82305 13.4963 6.79659 13.4096L 5.53955 9.28753C 5.48198 9.0988 5.55704 8.89433 5.72203 8.79021L 15.0932 2.87537C 15.3087 2.73925 15.5294 3.04116 15.3394 3.21209Z"/>
</defs>
</svg>
