<svg width="27" height="26" viewBox="0 0 27 26" version="1.1" xmlns="http://www.w3.org/2000/svg" xmlns:xlink="http://www.w3.org/1999/xlink">
<title>twitter</title>
<desc>Created using Figma</desc>
<g id="Canvas" transform="translate(-540 -4941)">
<g id="twitter">
<g id="Group">
<g id="Vector">
<use xlink:href="#path0_fill" transform="translate(540.968 4941)" fill="#50ABF1"/>
</g>
<g id="Vector">
<use xlink:href="#path1_fill" transform="translate(544.351 4946.48)" fill="#FFFFFF"/>
</g>
</g>
</g>
</g>
<defs>
<path id="path0_fill" d="M 20.5484 0L 5 0C 2.23858 0 0 2.23858 0 5L 0 21C 0 23.7614 2.23858 26 5 26L 20.5484 26C 23.3098 26 25.5484 23.7614 25.5484 21L 25.5484 5C 25.5484 2.23858 23.3098 0 20.5484 0Z"/>
<path id="path1_fill" d="M 0.00106508 13.7939C 1.70137 14.8913 3.71831 15.5264 5.88038 15.5264C 11.9544 15.5264 16.8783 10.515 16.8783 4.33412C 16.8783 4.1798 16.8751 4.02662 16.8692 3.87389C 17.0889 3.69794 18.4477 2.58961 18.7808 1.8771C 18.7808 1.8771 17.6774 2.34378 16.5974 2.45372C 16.5953 2.45372 16.5926 2.45423 16.5905 2.45423C 16.5905 2.45423 16.5926 2.45314 16.5963 2.45046C 16.6959 2.3828 18.087 1.41903 18.2754 0.270708C 18.2754 0.270708 17.4949 0.694656 16.4022 1.06555C 16.2212 1.1267 16.0319 1.18684 15.8366 1.24258C 15.1322 0.477518 14.131 2.08928e-08 13.0196 2.08928e-08C 10.8878 2.08928e-08 9.16035 1.75746 9.16035 3.92529C 9.16035 4.2312 9.19494 4.52895 9.26036 4.81484C 8.96246 4.8024 4.4259 4.54356 1.33967 0.740068C 1.33967 0.740068 -0.504822 3.30264 2.43884 5.93772C 2.43884 5.93772 1.54401 5.90143 0.772005 5.43202C 0.772005 5.43202 0.488452 8.53651 3.82207 9.33027C 3.82207 9.33027 3.16611 9.58312 2.11964 9.40284C 2.11964 9.40284 2.70485 11.9113 5.66662 12.1457C 5.66662 12.1457 3.3246 14.2988 9.5806e-08 13.7936L 0.00106508 13.7939Z"/>
</defs>
</svg>
