<svg width="36" height="36" viewBox="0 0 36 36" version="1.1" xmlns="http://www.w3.org/2000/svg" xmlns:xlink="http://www.w3.org/1999/xlink">
<title>twitter</title>
<desc>Created using Figma</desc>
<g id="Canvas" transform="translate(90 -1319)">
<g id="twitter">
<g id="Group">
<g id="Vector">
<use xlink:href="#path0_fill" transform="translate(-90 1319)" fill="#50ABF1"/>
</g>
<g id="Vector">
<use xlink:href="#path1_fill" transform="translate(-85.2321 1326.59)" fill="#FFFFFF"/>
</g>
</g>
</g>
</g>
<defs>
<path id="path0_fill" d="M 31 0L 5 0C 2.23858 0 0 2.23858 0 5L 0 31C 0 33.7614 2.23858 36 5 36L 31 36C 33.7614 36 36 33.7614 36 31L 36 5C 36 2.23858 33.7614 0 31 0Z"/>
<path id="path1_fill" d="M 0.0015008 19.0992C 2.39739 20.6188 5.23943 21.4981 8.28599 21.4981C 16.8449 21.4981 23.783 14.5592 23.783 6.00109C 23.783 5.78741 23.7785 5.57531 23.7703 5.36385C 24.0799 5.12023 25.9945 3.58561 26.4638 2.59906C 26.4638 2.59906 24.909 3.24523 23.3873 3.39745C 23.3843 3.39745 23.3806 3.39816 23.3776 3.39816C 23.3776 3.39816 23.3806 3.39666 23.3858 3.39295C 23.526 3.29926 25.4863 1.96482 25.7517 0.374827C 25.7517 0.374827 24.652 0.961831 23.1121 1.47537C 22.8572 1.56005 22.5904 1.64331 22.3152 1.72049C 21.3227 0.661179 19.9119 2.89285e-08 18.3458 2.89285e-08C 15.3419 2.89285e-08 12.9078 2.43341 12.9078 5.43502C 12.9078 5.85859 12.9565 6.27086 13.0487 6.6667C 12.6289 6.64948 6.23649 6.29108 1.88772 1.02471C 1.88772 1.02471 -0.711341 4.57288 3.43655 8.22145C 3.43655 8.22145 2.17565 8.17122 1.08783 7.52125C 1.08783 7.52125 0.688274 11.8198 5.38565 12.9188C 5.38565 12.9188 4.46134 13.2689 2.98676 13.0193C 2.98676 13.0193 3.81138 16.4925 7.98479 16.8171C 7.98479 16.8171 4.68466 19.7983 1.34999e-07 19.0988L 0.0015008 19.0992Z"/>
</defs>
</svg>
