<svg width="38" height="38" viewBox="0 0 38 38" version="1.1" xmlns="http://www.w3.org/2000/svg" xmlns:xlink="http://www.w3.org/1999/xlink">
<title>Vector</title>
<desc>Created using Figma</desc>
<g id="Canvas" transform="translate(455 -90)">
<g id="Vector">
<use xlink:href="#path0_fill" transform="translate(-455 90)" fill="#FFFFFF"/>
</g>
</g>
<defs>
<path id="path0_fill" d="M -1.31754e-08 19C -1.31754e-08 8.51683 8.51683 5.44833e-06 19 5.44833e-06C 29.4832 5.44833e-06 38 8.51683 38 19C 38 29.4832 29.4832 38 19 38C 8.51683 38 -1.31754e-08 29.4832 -1.31754e-08 19L -1.31754e-08 19ZM 1.72727 19C 1.72727 28.5497 9.4503 36.2727 19 36.2727C 28.5497 36.2727 36.2727 28.5497 36.2727 19C 36.2727 9.45029 28.5497 1.72728 19 1.72728C 9.4503 1.72728 1.72727 9.45029 1.72727 19L 1.72727 19ZM 13.3864 21.9148C 13.4086 21.7518 13.4771 21.5985 13.5838 21.4732C 13.6905 21.3478 13.8309 21.2555 13.9884 21.2073C 14.1459 21.159 14.314 21.1568 14.4727 21.2009C 14.6315 21.245 14.7743 21.3335 14.8843 21.456L 18.1364 24.9915L 18.1364 10.836C 18.1351 10.809 18.1351 10.782 18.1364 10.755C 18.1417 10.6418 18.1693 10.5307 18.2176 10.4281C 18.2659 10.3255 18.334 10.2334 18.418 10.1571C 18.5019 10.0808 18.6001 10.0218 18.707 9.98335C 18.8138 9.94492 18.9271 9.92787 19.0406 9.93319C 19.154 9.93851 19.2652 9.96607 19.368 10.0143C 19.4707 10.0626 19.5629 10.1306 19.6394 10.2144C 19.7158 10.2982 19.7749 10.3963 19.8134 10.5029C 19.8519 10.6096 19.869 10.7227 19.8636 10.836L 19.8636 24.9915L 23.1023 21.456C 23.1786 21.3719 23.2707 21.3037 23.3735 21.2552C 23.4762 21.2067 23.5875 21.1789 23.701 21.1733C 23.8145 21.1678 23.928 21.1846 24.035 21.2229C 24.1419 21.2611 24.2403 21.32 24.3245 21.3962C 24.4087 21.4724 24.477 21.5644 24.5256 21.667C 24.5741 21.7696 24.602 21.8807 24.6075 21.994C 24.6131 22.1073 24.5962 22.2206 24.5579 22.3274C 24.5196 22.4342 24.4606 22.5324 24.3843 22.6165L 19.6343 27.7848C 19.5533 27.8744 19.4545 27.9461 19.344 27.9951C 19.2336 28.0442 19.1141 28.0695 18.9933 28.0695C 18.8724 28.0695 18.7529 28.0442 18.6425 27.9951C 18.5321 27.9461 18.4332 27.8744 18.3523 27.7848L 13.6157 22.6165C 13.5384 22.5332 13.4784 22.4355 13.439 22.329C 13.3996 22.2224 13.3817 22.1092 13.3864 21.9957C 13.3851 21.9688 13.3851 21.9417 13.3864 21.9148Z"/>
</defs>
</svg>
